<?xml version="1.0" standalone="no"?>
<!DOCTYPE svg PUBLIC "-//W3C//DTD SVG 20010904//EN"
 "http://www.w3.org/TR/2001/REC-SVG-20010904/DTD/svg10.dtd">
<svg version="1.0" xmlns="http://www.w3.org/2000/svg"
 width="736.000000pt" height="1104.000000pt" viewBox="0 0 736.000000 1104.000000"
 preserveAspectRatio="xMidYMid meet">

<g transform="translate(0.000000,1104.000000) scale(0.100000,-0.100000)"
fill="#000000" stroke="none">
<path d="M4013 9813 c9 -2 23 -2 30 0 6 3 -1 5 -18 5 -16 0 -22 -2 -12 -5z"/>
<path d="M3530 9709 c-256 -16 -606 -86 -815 -163 -255 -94 -580 -282 -792
-457 -126 -104 -319 -301 -392 -400 -34 -46 -68 -92 -76 -102 -8 -9 -15 -19
-15 -21 0 -2 -18 -30 -39 -62 -76 -115 -141 -228 -141 -246 0 -10 -8 -26 -17
-36 -17 -17 -20 -16 -66 12 -76 47 -76 45 -16 149 29 50 59 102 67 115 8 12
10 22 6 22 -9 -1 -90 -122 -118 -177 -13 -25 -23 -33 -44 -33 -25 0 -21 -5 42
-62 61 -55 118 -98 131 -98 2 0 5 10 7 22 5 34 33 33 77 -3 31 -24 46 -30 65
-25 29 7 70 65 81 114 6 31 6 32 -27 32 -26 0 -39 7 -56 30 -12 16 -22 32 -22
35 0 3 19 29 41 58 23 29 56 84 74 123 74 161 212 331 416 509 93 82 108 94
205 161 372 260 798 419 1284 479 140 17 494 20 630 5 172 -18 202 -19 85 -1
-149 23 -397 31 -575 20z"/>
<path d="M4278 9653 c6 -2 18 -2 25 0 6 3 1 5 -13 5 -14 0 -19 -2 -12 -5z"/>
<path d="M4428 9623 c7 -3 16 -2 19 1 4 3 -2 6 -13 5 -11 0 -14 -3 -6 -6z"/>
<path d="M3515 9454 c-49 -7 -115 -13 -146 -13 -31 -1 -59 -4 -63 -8 -4 -5
-17 -9 -29 -10 -39 -2 -134 -21 -186 -37 -28 -8 -51 -12 -51 -9 0 3 -7 0 -15
-7 -8 -7 -21 -10 -30 -7 -8 4 -17 2 -20 -3 -4 -6 -12 -10 -20 -10 -8 0 -26 -5
-42 -11 -15 -6 -30 -10 -32 -9 -2 1 -7 -4 -11 -10 -4 -6 -18 -13 -31 -15 -38
-6 -110 -34 -141 -56 -16 -12 -35 -18 -43 -15 -9 3 -15 0 -15 -9 0 -7 -10 -17
-22 -20 -13 -4 -42 -28 -65 -53 -35 -38 -40 -48 -27 -52 13 -5 11 -10 -12 -25
-41 -27 -59 -46 -78 -82 -18 -36 -26 -39 -44 -21 -9 9 -12 9 -12 0 0 -7 5 -12
10 -12 6 0 10 -4 10 -9 0 -5 -8 -7 -19 -4 -12 3 -20 -2 -23 -15 -3 -11 -16
-22 -29 -25 -19 -3 -17 -5 9 -6 21 -1 35 4 38 14 4 8 12 15 19 15 7 0 39 12
71 26 116 51 140 62 219 92 104 39 351 117 440 138 117 27 148 37 185 55 145
73 205 93 296 97 112 5 171 -7 288 -59 53 -23 118 -44 156 -49 114 -15 327
-58 391 -78 386 -122 579 -204 785 -333 62 -39 91 -58 199 -133 109 -76 288
-230 436 -376 94 -94 180 -170 189 -170 10 0 29 9 43 20 31 24 45 25 69 3 17
-15 18 -15 18 3 -1 54 -32 150 -69 220 -52 96 -125 206 -148 225 -15 12 -15
10 1 -16 45 -70 86 -155 85 -176 0 -13 -3 -18 -6 -11 -2 6 -11 12 -19 12 -8 0
-14 4 -14 8 0 5 -16 17 -35 28 -19 10 -35 23 -35 28 0 5 -2 7 -5 4 -3 -3 -23
12 -45 34 -23 21 -47 38 -54 38 -8 0 -16 6 -19 14 -3 7 -34 33 -69 56 -34 24
-69 50 -76 57 -7 7 -17 13 -20 13 -4 0 -26 17 -49 38 -48 43 -51 45 -121 95
-28 20 -55 37 -58 37 -4 0 -20 12 -38 26 -39 32 -137 94 -149 94 -6 0 -17 8
-26 18 -16 17 -51 36 -128 68 -24 10 -43 21 -43 26 0 4 -6 8 -14 8 -8 0 -22 7
-30 16 -9 8 -26 17 -38 19 -12 3 -24 8 -27 13 -16 25 -308 142 -353 142 -10 0
-18 4 -18 8 0 9 -97 42 -124 42 -9 0 -15 4 -11 9 3 6 -11 13 -32 16 -21 4 -49
10 -63 15 -14 5 -47 12 -75 16 -27 4 -62 13 -77 20 -15 8 -52 14 -82 14 -30 0
-67 5 -83 11 -40 15 -391 18 -498 3z m-838 -250 c-3 -3 -12 -4 -19 -1 -8 3 -5
6 6 6 11 1 17 -2 13 -5z m-167 -184 c-15 -11 -26 -15 -29 -8 -4 12 17 28 39
28 10 0 7 -7 -10 -20z"/>
<path d="M2457 9089 c-19 -11 -14 -29 8 -29 14 0 28 27 17 34 -4 2 -15 0 -25
-5z"/>
<path d="M4000 8911 c0 -4 15 -12 34 -19 86 -31 168 -118 224 -238 l23 -49 49
3 c37 3 47 7 43 18 -3 8 -9 14 -15 14 -21 0 -76 72 -83 108 -13 75 -37 111
-90 136 -48 23 -185 43 -185 27z"/>
<path d="M5700 8910 c0 -5 5 -10 11 -10 5 0 7 5 4 10 -3 6 -8 10 -11 10 -2 0
-4 -4 -4 -10z"/>
<path d="M3197 8874 c-15 -8 -33 -12 -39 -8 -6 4 -8 3 -5 -2 3 -6 -16 -10 -44
-12 -56 -2 -73 -8 -63 -24 4 -6 2 -8 -3 -5 -6 4 -16 0 -23 -8 -16 -19 -7 -77
16 -113 16 -24 17 -24 27 -6 46 88 99 149 152 177 17 9 26 16 20 16 -5 0 -22
-7 -38 -15z"/>
<path d="M5725 8880 c3 -5 11 -10 16 -10 6 0 7 5 4 10 -3 6 -11 10 -16 10 -6
0 -7 -4 -4 -10z"/>
<path d="M3833 8835 c0 -21 3 -23 56 -20 95 3 99 5 56 20 -24 9 -41 11 -43 5
-5 -12 -42 -13 -42 -1 0 5 -6 11 -14 14 -9 4 -13 -2 -13 -18z"/>
<path d="M5760 8851 c0 -11 29 -35 35 -29 2 2 -4 12 -15 21 -11 9 -20 13 -20
8z"/>
<path d="M3515 8786 c-68 -21 -124 -49 -215 -111 -69 -46 -81 -53 -137 -79
-29 -14 -53 -27 -53 -30 0 -3 15 -6 33 -5 58 2 182 -13 195 -23 7 -6 35 -8 70
-4 78 9 154 -7 186 -39 33 -32 75 -33 105 -1 22 23 31 25 165 30 181 7 266 15
266 27 0 18 106 0 138 -24 10 -8 12 -4 8 19 -2 16 -5 33 -5 38 -1 4 -10 6 -21
3 -27 -7 -166 48 -290 115 -150 81 -200 98 -294 102 -62 3 -98 -1 -151 -18z
m247 -60 c103 -38 249 -116 242 -127 -11 -18 -72 0 -176 53 -153 79 -235 76
-365 -13 -63 -43 -144 -72 -182 -64 -13 2 -25 6 -27 8 -2 1 65 36 147 77 200
98 252 107 361 66z m-2 -72 c96 -42 133 -63 110 -65 -63 -5 -137 5 -159 22
-34 27 -92 25 -137 -6 -30 -20 -49 -25 -102 -25 -39 0 -62 4 -56 9 19 18 210
101 234 101 13 0 63 -16 110 -36z"/>
<path d="M4442 8793 c-8 -14 -9 -24 -2 -28 12 -7 24 18 18 37 -3 8 -9 5 -16
-9z"/>
<path d="M4660 8793 c-8 -4 -23 -17 -33 -30 -42 -53 -121 -67 -210 -37 -32 11
-47 21 -45 31 4 21 -18 28 -25 9 -4 -11 8 -24 39 -42 57 -34 156 -38 200 -9
26 17 102 86 93 84 -2 0 -11 -3 -19 -6z"/>
<path d="M5842 8755 c12 -14 23 -25 25 -25 2 0 -4 11 -13 25 -9 14 -20 25 -25
25 -5 0 1 -11 13 -25z"/>
<path d="M2827 8739 c4 -15 8 -17 14 -8 8 14 3 29 -11 29 -4 0 -6 -9 -3 -21z"/>
<path d="M4176 8745 c4 -8 11 -15 16 -15 6 0 5 6 -2 15 -7 8 -14 15 -16 15 -2
0 -1 -7 2 -15z"/>
<path d="M2922 8729 c2 -7 10 -15 17 -17 8 -3 12 1 9 9 -2 7 -10 15 -17 17 -8
3 -12 -1 -9 -9z"/>
<path d="M4733 8730 c-23 -9 -31 -34 -14 -45 6 -3 29 -1 52 4 31 7 53 6 81 -3
32 -12 38 -11 38 0 0 30 -113 61 -157 44z"/>
<path d="M2610 8727 c0 -15 118 -77 145 -76 29 0 28 1 -10 13 -22 7 -62 25
-88 40 -26 15 -47 26 -47 23z"/>
<path d="M2453 8654 c-40 -17 -64 -52 -56 -82 6 -23 6 -23 24 7 12 19 35 36
70 49 29 11 55 25 57 31 5 16 -55 13 -95 -5z"/>
<path d="M4231 8654 c0 -11 3 -14 6 -6 3 7 2 16 -1 19 -3 4 -6 -2 -5 -13z"/>
<path d="M1269 8572 c-23 -27 -31 -42 -22 -42 5 0 17 14 26 30 20 34 19 39 -4
12z"/>
<path d="M4300 8530 c0 -15 12 -23 52 -35 64 -19 109 -20 57 -1 -20 7 -50 22
-67 34 -37 27 -42 27 -42 2z"/>
<path d="M4908 8540 c-9 -6 -43 -16 -75 -24 l-58 -14 48 -1 c48 -1 109 18 121
38 9 14 -13 14 -36 1z"/>
<path d="M2950 8500 c-45 -14 -51 -18 -33 -24 23 -7 86 14 97 33 9 14 4 13
-64 -9z"/>
<path d="M5190 8468 c0 -7 5 -20 10 -28 8 -12 10 -11 10 7 0 12 -4 25 -10 28
-5 3 -10 0 -10 -7z"/>
<path d="M5420 8477 c0 -13 41 -47 56 -47 16 1 15 4 -9 25 -25 22 -47 32 -47
22z"/>
<path d="M5365 8429 c-4 -6 -5 -12 -2 -15 2 -3 7 2 10 11 7 17 1 20 -8 4z"/>
<path d="M6240 8421 c13 -25 27 -34 34 -22 7 10 -20 41 -35 41 -6 0 -6 -7 1
-19z"/>
<path d="M5123 8394 c-13 -21 -14 -29 -5 -43 7 -9 29 -42 50 -73 20 -32 40
-58 44 -58 7 0 4 36 -8 113 -3 20 -9 37 -13 37 -4 0 -14 11 -21 25 -17 32 -25
31 -47 -1z"/>
<path d="M3212 8381 c28 -18 328 -76 454 -87 79 -7 145 2 109 16 -17 6 -15 8
15 14 67 14 140 37 140 44 0 4 -40 3 -90 -2 -68 -7 -99 -6 -130 4 -32 11 -53
11 -104 2 -60 -11 -177 -7 -361 14 -38 4 -46 3 -33 -5z"/>
<path d="M4644 8345 c-133 -31 -283 -90 -396 -158 -105 -62 -130 -76 -151 -83
-12 -4 -24 -10 -27 -14 -3 -4 -32 -19 -65 -34 -33 -15 -71 -33 -85 -41 -59
-31 -147 -54 -199 -50 l-52 4 23 -18 c47 -37 135 -7 487 168 209 103 280 133
388 164 108 30 148 37 223 37 167 0 330 -75 403 -186 20 -31 37 -50 37 -42 0
19 -65 126 -98 161 -46 48 -127 88 -210 103 -106 18 -160 16 -278 -11z"/>
<path d="M2140 8319 c0 -18 2 -19 15 -9 15 12 12 30 -6 30 -5 0 -9 -10 -9 -21z"/>
<path d="M2994 8289 c-4 -8 -3 -9 4 -5 7 4 12 3 12 -3 0 -6 33 -29 73 -53 86
-50 160 -106 177 -133 12 -19 12 -19 -16 -1 l-29 17 30 -27 c17 -15 97 -90
179 -168 81 -77 162 -150 179 -161 l31 -19 -25 44 c-13 25 -27 47 -30 50 -18
16 -79 118 -79 133 0 10 -4 15 -10 12 -5 -3 -10 0 -10 8 0 7 -38 46 -84 86
-104 90 -137 112 -276 181 -96 47 -116 54 -126 39z"/>
<path d="M6334 8275 c-14 -14 -43 -38 -65 -52 -36 -24 -50 -43 -31 -43 10 0
125 99 130 111 7 17 -9 9 -34 -16z"/>
<path d="M3230 8276 c0 -2 7 -7 16 -10 8 -3 12 -2 9 4 -6 10 -25 14 -25 6z"/>
<path d="M4630 8261 c-155 -42 -379 -149 -363 -173 3 -7 1 -8 -6 -4 -6 4 -29
-7 -53 -26 -23 -18 -46 -34 -50 -34 -4 -1 -13 -2 -19 -3 -5 0 -8 -5 -5 -10 8
-12 -45 -46 -64 -42 -8 1 -12 -1 -8 -5 5 -4 -7 -16 -25 -28 -17 -11 -39 -25
-48 -31 -53 -34 -110 -62 -154 -76 l-50 -16 42 -13 c36 -11 52 -11 107 3 89
22 201 68 326 133 118 62 420 191 420 179 0 -3 -30 -18 -66 -35 -80 -36 -276
-147 -301 -169 -39 -36 -236 -120 -392 -167 -11 -4 -9 -8 7 -20 17 -12 29 -13
61 -4 22 6 43 9 48 8 4 -1 22 6 40 15 l32 17 -14 -41 c-31 -87 -12 -140 42
-122 20 7 37 28 63 77 20 38 40 68 46 68 13 0 37 18 92 68 72 66 98 88 83 68
-7 -9 -10 -22 -6 -28 3 -5 1 -10 -5 -10 -6 0 -9 -4 -6 -8 3 -5 -10 -49 -29
-97 -19 -49 -35 -93 -35 -98 0 -6 -8 -19 -17 -30 -11 -13 -12 -17 -4 -12 11 6
13 4 8 -9 -4 -10 -7 -20 -7 -22 0 -3 -5 -2 -11 2 -8 5 -10 -1 -7 -21 5 -21 1
-29 -14 -33 -10 -2 -17 -10 -15 -17 6 -14 -69 -65 -95 -65 -10 0 -18 -3 -18
-7 1 -15 73 -62 119 -78 95 -34 133 -61 236 -170 120 -127 142 -152 162 -182
9 -13 22 -23 31 -23 14 0 15 -2 2 -15 -8 -8 -48 -19 -89 -25 -43 -6 -85 -19
-101 -30 -22 -16 -52 -22 -127 -27 -72 -4 -105 -11 -125 -25 -14 -10 -40 -21
-57 -24 -17 -4 -34 -11 -37 -16 -8 -13 44 1 96 27 31 15 72 24 131 28 60 4 99
12 127 27 48 25 241 43 228 22 -4 -7 -1 -12 9 -12 10 0 13 -5 9 -12 -5 -8 -2
-9 10 -5 9 4 15 3 12 -2 -3 -5 1 -14 9 -21 8 -7 15 -18 15 -24 1 -6 9 -29 20
-51 11 -22 19 -52 20 -67 0 -16 5 -28 10 -28 6 0 9 -12 8 -27 -4 -63 56 -233
93 -263 8 -6 61 -109 66 -127 12 -43 14 -73 5 -73 -6 0 -26 18 -43 40 -18 22
-41 40 -51 40 -11 0 -16 5 -13 10 4 7 -3 9 -22 5 l-28 -5 28 11 29 11 -40 23
c-43 25 -134 49 -154 42 -7 -2 14 -10 47 -17 33 -7 76 -21 95 -32 19 -10 26
-16 15 -12 -72 25 -155 44 -190 43 l-40 -1 40 -12 40 -13 -55 0 c-30 -1 -67
-6 -81 -11 -28 -11 -152 -26 -129 -15 8 3 44 14 80 24 36 9 54 17 40 18 -14 0
-58 -8 -99 -19 -80 -22 -104 -25 -83 -11 22 13 -32 23 -63 11 -41 -16 -43 -11
-5 10 43 23 36 25 -15 4 -20 -8 -34 -10 -30 -5 9 15 -1 14 -37 -5 -17 -9 -27
-11 -23 -4 5 8 1 11 -11 9 -11 -2 -25 0 -33 5 -9 6 -12 5 -8 -1 4 -6 -18 -15
-56 -23 -34 -7 -70 -17 -79 -22 -14 -7 -18 -5 -18 9 0 15 -2 16 -10 3 -5 -8
-10 -10 -10 -5 0 6 -5 3 -10 -5 -6 -9 -21 -14 -39 -12 -17 2 -55 -1 -84 -8
-46 -9 -56 -16 -80 -52 -15 -23 -27 -56 -28 -73 -1 -45 -9 -108 -15 -125 -13
-32 -16 -172 -5 -237 6 -37 12 -90 13 -118 2 -30 9 -55 18 -62 12 -10 12 -12
1 -13 -26 0 7 -310 40 -372 5 -9 8 -21 7 -25 -8 -25 54 -79 85 -74 27 4 66
-38 100 -107 43 -89 45 -102 16 -102 -35 0 -89 31 -128 73 l-37 40 -39 -14
c-21 -8 -68 -41 -104 -75 -36 -33 -86 -68 -111 -78 -25 -10 -73 -31 -107 -48
l-63 -30 -44 26 c-53 31 -86 32 -143 7 -52 -24 -80 -70 -62 -104 16 -30 48
-56 76 -63 12 -4 61 0 107 6 78 12 87 12 113 -5 32 -21 63 -58 80 -94 l11 -26
2 25 1 25 11 -22 c6 -13 17 -23 23 -23 7 0 18 -6 24 -14 7 -8 23 -17 37 -20
28 -7 79 -40 104 -68 8 -9 38 -28 67 -43 28 -15 53 -30 55 -35 2 -4 30 -18 63
-29 33 -11 50 -20 38 -21 -13 0 -23 -4 -23 -8 0 -16 -30 -9 -31 7 -1 9 -5 5
-9 -9 -4 -14 -8 -18 -9 -10 -2 30 -23 41 -43 23 -10 -9 -31 -18 -47 -19 -36
-4 -67 -18 -111 -50 -22 -16 -42 -23 -56 -20 -13 4 -24 1 -26 -6 -2 -6 -32
-12 -74 -14 -38 -1 -71 -3 -74 -4 -3 -1 -9 -2 -13 -1 -4 1 -17 -3 -27 -9 -25
-13 -25 -7 -2 16 16 17 16 17 -3 9 -20 -8 -26 -8 -80 -1 -34 4 -55 -5 -106
-45 -20 -16 -43 -29 -51 -29 -8 0 -23 -8 -34 -19 -11 -10 -30 -22 -42 -25 -12
-4 -20 -11 -17 -16 3 -4 -9 -13 -25 -19 -24 -8 -36 -7 -60 7 -16 9 -30 20 -30
25 0 11 -35 8 -48 -5 -14 -14 -16 -47 -4 -65 5 -8 35 -13 77 -14 57 -1 81 4
128 26 129 60 212 68 371 34 91 -20 109 -21 210 -10 133 14 259 -3 280 -37 8
-13 -92 -118 -109 -114 -10 2 -13 -2 -8 -14 4 -12 3 -15 -5 -10 -8 5 -11 0 -9
-16 3 -29 5 -29 -355 -28 -270 2 -278 1 -278 -18 0 -11 7 -25 15 -32 9 -7 25
-34 36 -60 17 -41 26 -49 62 -60 23 -7 126 -16 228 -20 102 -4 191 -10 198
-14 7 -4 31 -10 54 -13 23 -2 45 -10 49 -16 5 -8 8 -7 8 3 0 12 12 16 46 18
64 2 124 20 124 36 0 8 8 16 18 18 11 3 27 28 41 64 28 74 44 105 145 289 6
11 14 22 17 25 3 3 11 15 18 27 6 12 17 20 25 17 7 -3 17 3 21 13 7 17 8 17
15 -2 7 -16 9 -11 10 20 0 32 3 37 11 22 6 -9 7 -27 4 -40 -4 -12 -9 -31 -12
-42 l-5 -20 15 20 c15 19 16 17 12 -30 -3 -29 2 -71 12 -102 14 -44 14 -60 3
-112 -7 -34 -19 -62 -27 -66 -11 -4 -14 -14 -9 -36 3 -16 2 -28 -2 -25 -4 2
-14 -9 -21 -25 -7 -16 -17 -29 -22 -29 -10 0 -87 -48 -107 -67 -7 -7 -17 -13
-22 -13 -4 0 -13 -13 -20 -29 -6 -16 -18 -32 -26 -35 -8 -3 -14 -14 -14 -24 0
-10 -5 -23 -12 -30 -7 -7 -9 -12 -5 -12 9 0 -3 -15 -49 -66 -17 -19 -37 -34
-43 -34 -17 0 -68 -52 -74 -76 -3 -14 -5 -11 -6 9 -1 16 -5 26 -11 22 -6 -4
-7 -11 -4 -17 4 -6 2 -8 -4 -4 -6 3 -17 -1 -25 -9 -9 -8 -20 -15 -26 -15 -6 0
-12 -12 -12 -27 -1 -23 -3 -24 -6 -6 -2 12 -11 24 -19 27 -11 4 -13 -1 -8 -22
4 -21 3 -24 -5 -12 -8 11 -11 12 -11 2 0 -7 -4 -10 -10 -7 -5 3 -10 -1 -10 -9
0 -9 -8 -16 -19 -16 -14 0 -18 -5 -14 -21 5 -17 2 -20 -18 -19 -41 4 -59 0
-59 -11 0 -5 4 -8 9 -4 5 3 12 1 16 -5 3 -5 1 -10 -6 -10 -6 0 -18 -8 -26 -17
-13 -16 -13 -16 -3 5 6 13 7 22 1 22 -6 0 -6 12 0 32 5 17 7 34 4 36 -2 2 -7
-7 -11 -22 -3 -14 -10 -26 -14 -26 -4 0 -7 -8 -6 -17 0 -11 -7 -19 -19 -19
-11 -1 -26 -2 -32 -3 -7 -1 -13 -7 -13 -15 0 -8 -13 -30 -30 -48 -36 -39 -40
-29 -5 16 23 31 36 94 16 82 -5 -3 -7 -14 -4 -24 2 -10 -3 -24 -11 -31 -13
-11 -16 -11 -16 2 0 9 5 19 10 22 13 8 3 25 -16 25 -8 0 -14 -9 -14 -19 0 -15
-5 -18 -22 -13 -13 3 -19 1 -15 -5 12 -19 -155 -53 -258 -53 -35 0 -67 -5 -74
-13 -8 -6 -11 -7 -8 -2 3 6 2 17 -2 24 -6 9 -12 5 -24 -13 -9 -13 -22 -23 -29
-22 -20 3 -90 37 -120 58 -16 11 -28 15 -28 9 0 -6 5 -11 11 -11 5 0 7 -4 4
-10 -4 -6 -14 -4 -28 4 -12 8 -44 20 -72 27 -27 7 -70 23 -95 35 -25 13 -52
24 -61 24 -9 0 -22 6 -28 14 -7 8 -24 17 -38 21 -15 3 -33 15 -41 26 -8 11
-20 18 -28 15 -20 -8 -18 19 3 35 9 8 29 33 43 56 15 23 31 39 35 35 5 -4 5
-1 1 6 -9 15 -26 16 -26 1 0 -12 -52 -88 -61 -89 -3 0 -15 9 -27 20 -12 11
-26 20 -32 20 -5 0 -10 9 -10 20 0 15 -7 20 -25 20 -15 0 -41 16 -71 45 -25
25 -51 45 -57 45 -5 0 -7 3 -4 7 4 3 1 13 -6 22 -42 50 -99 167 -109 224 -9
49 -13 57 -18 37 -6 -26 -4 -32 -70 185 -19 62 -46 178 -54 230 -3 17 -9 46
-14 65 -21 76 -21 108 -1 134 23 29 25 44 3 21 -15 -15 -17 -15 -30 3 -12 17
-36 103 -50 177 -3 17 -12 48 -19 69 -8 22 -12 43 -10 46 2 4 -5 35 -16 71
-11 35 -42 157 -68 270 -27 113 -54 215 -60 227 -6 11 -10 36 -10 54 l2 33 6
-35 c6 -28 9 -15 15 60 12 149 42 263 107 412 16 36 29 74 29 82 0 9 7 19 16
23 8 3 13 12 10 20 -6 16 53 155 63 148 4 -2 8 7 9 20 1 13 11 40 23 60 12 20
20 37 18 38 -34 24 -61 37 -68 32 -15 -9 -61 13 -56 27 13 35 -132 73 -169 45
-19 -14 -18 -15 12 -22 17 -3 35 -11 38 -17 7 -11 -52 -2 -71 11 -5 4 -23 13
-39 20 l-29 12 36 -40 c21 -23 37 -43 37 -46 0 -9 -36 9 -85 44 l-50 34 45
-47 c47 -50 32 -51 -35 -1 -69 51 -104 33 -67 -34 l22 -38 -21 -18 c-11 -11
-17 -25 -15 -32 8 -19 -24 -29 -35 -12 -5 8 -8 23 -6 34 2 18 -4 20 -52 20
-47 0 -55 -3 -62 -23 -7 -19 -3 -30 26 -59 31 -32 35 -34 35 -15 0 11 -4 24
-10 27 -15 9 -12 45 4 45 8 0 23 -15 34 -32 21 -34 69 -68 95 -68 25 0 47 29
47 63 l1 32 19 -35 c24 -44 24 -43 -3 -71 -68 -74 -133 -99 -190 -76 -36 16
-48 39 -63 120 -3 20 -10 37 -14 37 -12 0 -36 67 -49 140 -7 36 -16 85 -21
109 -10 55 0 82 43 115 35 27 71 34 82 16 23 -37 35 33 15 86 -13 34 -5 44 16
18 14 -18 15 -17 10 16 -3 19 -8 51 -11 70 -4 24 -3 31 3 21 5 -7 14 -11 20
-7 6 3 19 -5 31 -19 19 -25 20 -25 30 -7 6 11 9 21 6 23 -2 2 -13 28 -24 57
l-21 53 25 -18 c13 -10 27 -26 30 -35 10 -27 22 -21 36 16 21 59 78 77 118 39
10 -11 16 -11 27 -2 13 10 9 17 -21 46 -34 32 -35 33 -10 33 14 0 25 5 25 10
0 15 31 12 64 -5 36 -19 42 -19 26 0 -6 8 -9 19 -5 24 3 6 -13 22 -36 36 -22
15 -38 29 -34 33 3 4 9 2 13 -4 4 -6 27 -20 52 -32 100 -48 192 -186 150 -228
-6 -6 -6 -22 0 -44 6 -19 10 -52 10 -72 0 -20 4 -39 9 -42 9 -6 61 116 61 142
0 6 4 12 8 12 15 0 32 75 32 142 0 78 -32 149 -86 192 -36 28 -154 65 -222 68
-18 1 -35 5 -38 9 -6 10 -111 42 -146 45 -33 2 -28 -10 22 -53 49 -41 132 -82
213 -105 108 -29 171 -68 208 -128 19 -29 26 -160 10 -160 -6 0 -11 12 -11 28
0 15 -4 42 -10 61 -11 39 -78 124 -91 115 -5 -3 -12 1 -15 10 -9 23 -80 47
-185 61 -112 16 -178 37 -232 74 -22 14 -51 34 -65 43 -38 25 -40 13 -5 -22
17 -17 39 -47 49 -66 10 -19 22 -34 26 -34 4 0 12 -10 19 -22 10 -18 9 -20 -5
-15 -11 4 -16 1 -17 -11 0 -14 -2 -14 -9 3 -6 15 -8 11 -8 -20 -1 -69 -5 -83
-21 -77 -10 4 -13 1 -8 -11 5 -12 1 -17 -13 -17 -10 0 -21 -4 -24 -9 -3 -5
-36 -7 -73 -5 -38 2 -61 1 -53 -3 27 -10 100 -74 100 -86 0 -8 -2 -9 -8 -1 -4
6 -20 14 -36 18 -26 6 -28 5 -17 -8 12 -14 7 -16 -40 -17 -39 -1 -47 -3 -29
-8 34 -9 48 -51 30 -88 -8 -15 -13 -47 -11 -70 3 -48 -10 -56 -34 -19 -14 21
-53 41 -63 32 -1 -2 10 -25 26 -52 40 -69 72 -148 72 -178 0 -14 7 -51 15 -83
19 -72 20 -117 2 -107 -6 4 -5 -1 4 -12 31 -35 50 -85 55 -137 4 -56 7 -69 65
-287 21 -80 49 -188 63 -240 14 -52 55 -207 91 -345 58 -217 65 -253 54 -275
-10 -21 -13 -22 -16 -8 -5 19 -33 25 -33 8 0 -5 -7 -10 -15 -10 -8 0 -24 -9
-34 -19 -14 -14 -22 -16 -30 -8 -8 8 -10 2 -5 -23 6 -33 6 -34 -9 -15 -14 18
-15 10 -10 -100 3 -66 3 -118 0 -115 -3 3 -7 35 -8 70 -1 36 -5 74 -10 85 -4
11 -5 -21 -2 -71 4 -58 2 -98 -5 -110 -9 -15 -12 -3 -14 61 -2 71 -2 73 -5 20
-2 -33 -6 -76 -9 -95 -7 -34 -7 -34 -14 -10 l-8 25 -1 -24 c-1 -16 -5 -21 -16
-17 -10 3 -16 -1 -16 -12 -1 -9 -5 1 -9 23 l-7 40 -2 -38 c-1 -25 -5 -36 -12
-31 -6 3 -15 0 -20 -7 -6 -9 -9 1 -10 31 -1 33 -3 39 -8 22 -5 -21 -8 -18 -20
23 -10 33 -16 43 -22 33 -8 -12 -13 9 -12 50 1 6 -4 12 -9 12 -5 0 -8 8 -7 18
1 9 -4 31 -11 47 -7 17 -12 34 -12 38 1 4 -6 27 -17 50 -10 23 -24 67 -31 97
-17 75 -29 95 -30 48 0 -41 -19 -58 -65 -58 -17 0 -25 -5 -22 -12 2 -9 19 -12
46 -10 46 4 71 -10 71 -39 0 -12 -10 -21 -28 -25 -72 -16 -74 -17 -57 -42 14
-19 22 -21 56 -16 62 10 83 -22 49 -74 -10 -15 -25 -22 -46 -22 -20 0 -34 -6
-38 -16 -3 -8 -2 -12 4 -9 6 3 10 2 10 -3 0 -6 15 -6 40 0 34 9 44 8 60 -7 25
-22 24 -24 -1 -55 -11 -14 -18 -20 -15 -14 3 6 -9 4 -28 -5 -27 -13 -31 -19
-22 -33 8 -13 20 -15 57 -11 40 5 49 3 58 -15 9 -18 6 -22 -34 -41 -60 -28
-72 -27 -80 10 -4 17 -10 28 -13 25 -3 -4 -11 8 -18 26 -6 18 -22 58 -34 88
-45 110 -132 379 -171 525 -53 205 -142 597 -164 719 -3 21 -9 36 -11 33 -20
-20 174 -844 299 -1268 14 -48 28 -105 32 -128 3 -23 13 -60 21 -82 17 -50 17
-52 2 -43 -10 6 -10 5 -1 -7 6 -8 9 -29 7 -47 -8 -72 -24 -69 -59 13 -29 70
-44 84 -37 34 3 -17 0 -34 -5 -38 -5 -3 -16 -24 -24 -45 -12 -33 -23 -45 -58
-63 -1 -1 0 -7 4 -13 6 -9 10 -9 16 1 4 7 10 11 13 9 2 -3 -2 -14 -10 -25 -15
-20 -15 -20 -30 0 -9 11 -20 19 -26 17 -6 -1 -16 5 -22 14 -18 25 -56 10 -56
-22 0 -31 -17 -64 -32 -64 -6 0 -20 7 -30 17 -17 15 -19 15 -36 0 -17 -16 -20
-14 -52 43 -18 32 -39 61 -47 64 -21 8 -43 -4 -43 -24 0 -10 -7 -26 -16 -34
-30 -30 -15 -106 21 -106 6 0 20 -9 29 -19 15 -17 16 -25 6 -55 -6 -19 -18
-40 -26 -46 -23 -20 -16 -40 16 -47 17 -3 33 -10 36 -14 22 -36 124 35 162
111 l19 39 22 -20 c27 -25 27 -67 1 -121 -11 -23 -18 -43 -17 -45 8 -8 39 38
57 83 23 59 27 27 4 -38 -18 -53 -76 -118 -105 -118 -13 0 -18 4 -13 12 5 8 2
9 -10 5 -10 -4 -25 -7 -34 -7 -25 0 44 -40 73 -42 49 -4 5 -22 -55 -23 l-60 0
31 -27 c18 -16 39 -28 48 -28 48 0 123 -113 83 -123 -10 -3 -3 -5 13 -6 34 -1
63 -16 52 -27 -4 -4 -2 -13 4 -20 20 -24 -7 -52 -59 -61 l-47 -8 60 -5 60 -5
-3 -40 c-2 -22 1 -69 7 -103 11 -72 7 -92 -20 -92 -10 0 -19 -4 -19 -10 0 -5
11 -10 24 -10 38 0 41 -19 7 -31 -17 -6 -31 -15 -31 -19 0 -4 -10 -6 -21 -3
-40 11 -15 -20 27 -32 36 -10 37 -12 16 -19 l-23 -8 23 -20 23 -20 9 26 c6 14
18 28 27 31 31 10 43 71 40 209 -1 70 -6 136 -10 145 -6 10 -5 24 1 35 5 10 7
36 3 59 -10 63 -8 118 4 130 8 8 27 6 68 -7 86 -27 143 -59 188 -106 68 -71
120 -87 160 -50 21 20 21 20 43 -3 12 -12 32 -34 43 -50 30 -40 79 -38 116 7
24 29 36 34 88 41 102 12 159 46 207 123 11 17 24 32 28 32 5 0 14 -19 20 -42
13 -53 31 -90 71 -146 32 -44 33 -66 3 -41 -14 11 -18 10 -31 -6 -28 -39 -13
-66 74 -130 45 -33 86 -69 92 -80 5 -11 13 -117 16 -235 6 -195 25 -383 41
-399 3 -3 2 12 -2 33 -5 29 -3 42 8 50 8 6 18 20 22 31 8 20 8 20 16 0 7 -18
16 -20 69 -18 33 1 61 -2 61 -8 0 -20 30 -8 52 21 12 17 28 30 35 30 8 0 16 7
20 16 4 11 13 14 29 10 13 -4 24 -2 24 2 0 5 39 8 88 8 67 -1 86 -5 84 -15 -2
-8 3 -11 12 -8 9 4 18 2 22 -4 3 -5 14 -7 24 -4 11 3 20 0 24 -10 3 -8 17 -20
32 -25 15 -6 24 -13 21 -17 -5 -5 78 -93 88 -93 1 0 2 8 1 18 -1 13 8 18 42
20 23 2 42 -1 42 -6 0 -6 11 -13 25 -16 14 -4 24 -12 22 -18 -1 -6 13 -15 32
-19 19 -4 38 -14 43 -23 5 -9 16 -16 23 -16 8 0 15 -4 15 -10 0 -5 11 -10 24
-10 13 0 29 -7 36 -15 7 -8 17 -12 22 -9 5 3 12 -3 15 -15 3 -12 13 -21 25
-21 12 0 23 -11 29 -30 6 -16 19 -32 30 -35 20 -7 22 -14 19 -52 -1 -17 3 -21
14 -17 24 9 20 -30 -9 -89 -14 -27 -24 -55 -21 -61 2 -6 5 -3 5 7 1 9 6 17 11
17 6 0 10 7 10 15 0 16 34 38 43 28 3 -3 0 -12 -8 -20 -11 -11 -12 -19 -5 -34
6 -10 15 -19 20 -19 6 0 10 -15 10 -32 1 -38 23 -149 34 -166 4 -7 3 -12 -2
-12 -11 0 -4 -39 10 -57 5 -7 7 -17 3 -23 -3 -5 -2 -10 4 -10 6 0 13 -16 17
-35 3 -19 14 -40 23 -45 12 -7 7 -8 -19 -5 -27 4 -30 3 -15 -4 17 -8 15 -10
-14 -10 -35 -1 -72 21 -129 79 -43 43 -63 37 -21 -6 97 -102 88 -97 145 -91
60 6 110 28 107 45 -3 11 54 112 63 112 6 0 -9 -34 -28 -62 -10 -14 -18 -34
-18 -43 0 -9 -5 -25 -10 -35 -8 -15 -6 -21 9 -30 13 -7 22 -7 26 0 9 14 26 12
24 -2 -1 -7 3 -24 9 -38 6 -14 11 -19 11 -12 1 7 6 10 12 6 6 -3 15 0 21 7 7
11 8 9 6 -6 -2 -11 -10 -20 -18 -20 -19 0 -26 -35 -8 -46 11 -7 10 -11 -3 -24
-11 -11 -35 -16 -77 -16 -34 0 -62 -3 -62 -6 0 -10 45 -68 82 -107 21 -21 38
-45 38 -52 0 -8 4 -14 9 -14 5 0 -1 -18 -12 -41 -15 -30 -17 -43 -8 -52 19
-19 13 -47 -9 -47 -12 0 -34 -10 -50 -22 -27 -20 -37 -21 -162 -15 -143 6
-254 25 -358 61 -36 13 -74 26 -85 30 -11 3 4 -6 34 -20 137 -67 337 -100 565
-91 346 13 576 105 825 332 51 47 97 85 101 85 4 0 10 -80 14 -178 4 -97 13
-294 21 -437 8 -143 19 -402 25 -575 6 -173 14 -317 17 -320 10 -9 -6 639 -22
895 -8 132 -18 335 -21 450 l-7 210 69 92 c75 98 145 221 182 318 26 65 39
170 23 179 -15 9 -5 89 16 132 13 27 17 51 13 79 -3 22 -2 63 3 90 20 134 34
280 36 370 1 55 4 114 7 130 3 17 8 66 13 110 5 44 14 93 20 109 7 16 25 81
42 144 29 110 65 200 76 189 3 -3 0 -43 -6 -88 -13 -97 -15 -239 -3 -239 27 0
75 99 66 135 -3 13 -1 32 5 42 10 17 10 17 11 0 0 -10 4 -17 9 -15 12 4 101
117 101 128 0 4 7 11 16 14 12 5 15 2 9 -11 -16 -41 -16 -47 2 -25 l19 24 35
-20 c20 -12 63 -22 103 -26 58 -5 73 -10 90 -30 49 -59 122 -52 139 13 6 25 5
36 -5 42 -10 7 -9 9 5 9 9 0 17 -5 17 -10 0 -6 8 -10 17 -8 12 2 17 -4 18 -22
0 -21 4 -24 25 -22 28 4 43 15 46 34 1 7 7 41 12 75 6 34 17 74 26 90 16 32
45 61 47 47 1 -5 2 -26 3 -46 5 -73 25 -77 139 -24 32 14 64 26 72 26 7 0 33
-19 57 -43 50 -51 100 -72 130 -56 11 6 22 9 24 6 3 -2 7 -83 10 -178 3 -96 8
-181 11 -189 4 -8 5 -20 4 -27 -1 -7 9 -30 23 -52 25 -39 25 -42 27 -278 2
-254 6 -316 20 -307 5 3 9 0 9 -5 0 -6 -4 -11 -10 -11 -5 0 -10 -4 -10 -10 0
-5 7 -10 15 -10 8 0 15 -4 15 -10 0 -5 -7 -10 -15 -10 -8 0 -15 -5 -15 -11 0
-5 3 -8 8 -6 4 3 13 -1 19 -8 10 -11 8 -15 -10 -21 l-22 -7 25 -10 c15 -5 20
-11 13 -14 -9 -3 -10 -10 -3 -23 7 -13 7 -21 -1 -26 -9 -5 -7 -11 5 -20 19
-14 13 -38 -7 -28 -7 3 -3 -1 7 -10 17 -14 17 -16 3 -22 -19 -7 -23 -25 -6
-21 6 1 14 -4 17 -12 2 -8 0 -11 -6 -7 -6 3 -13 2 -16 -3 -3 -5 1 -11 9 -15 8
-3 15 -10 15 -16 0 -6 -4 -9 -8 -6 -4 2 -14 0 -22 -5 -12 -7 -11 -10 8 -15 12
-4 22 -11 22 -16 0 -5 -4 -6 -10 -3 -5 3 -10 -1 -10 -10 0 -10 7 -15 18 -13
19 4 19 5 8 288 -3 74 -6 243 -6 375 -1 231 5 295 30 295 5 0 10 8 10 19 0 10
6 24 14 30 11 10 14 43 14 156 0 79 3 149 7 155 7 11 -2 97 -12 113 -3 4 -6
33 -7 63 -2 35 -9 61 -19 71 -15 15 -17 15 -25 -8 -5 -13 -12 -31 -15 -39 -4
-10 -6 -8 -6 7 -1 20 -4 21 -27 13 -33 -13 -34 -13 -34 4 0 7 14 19 32 27 48
20 153 124 178 175 25 55 22 63 -10 29 -13 -14 -31 -25 -39 -25 -10 0 1 15 27
39 34 31 45 48 49 80 3 22 9 39 12 36 4 -2 8 23 9 55 2 44 -1 61 -13 67 -11 7
-13 16 -6 40 10 35 4 48 -15 32 -10 -8 -20 -6 -40 10 -15 12 -33 21 -40 21 -8
0 -14 4 -14 9 0 13 100 24 115 11 7 -6 20 -8 29 -4 9 4 18 0 21 -8 6 -15 -19
-233 -31 -274 -4 -16 0 -23 18 -27 47 -13 57 -8 68 32 5 21 16 39 23 38 6 0
29 1 50 1 34 2 37 4 37 33 0 57 114 531 207 863 35 126 62 235 59 242 -3 8 0
13 7 11 7 -1 11 6 9 15 -2 10 2 27 8 39 9 15 8 24 0 34 -11 13 -6 66 8 90 8
13 9 155 1 155 -3 0 -13 -21 -22 -47 l-16 -48 6 45 c3 25 12 55 20 68 8 13 12
29 10 35 -2 7 2 19 10 29 10 11 11 18 3 23 -7 4 -14 -2 -17 -14 -3 -12 -9 -21
-13 -21 -5 0 -6 -9 -3 -20 4 -15 0 -20 -15 -20 -15 0 -19 -5 -15 -19 3 -13 -2
-24 -15 -32 -15 -10 -18 -17 -12 -30 7 -13 5 -18 -12 -22 -12 -4 -28 -2 -37 3
-11 6 -28 -2 -61 -29 -25 -21 -57 -46 -72 -56 -17 -10 -28 -26 -28 -40 0 -20
6 -23 57 -28 32 -3 62 -12 68 -20 5 -8 16 -12 23 -9 10 3 9 -5 -3 -34 -8 -21
-17 -39 -18 -40 -11 -10 -141 -74 -144 -71 -2 2 22 24 54 48 45 34 54 44 39
47 -10 2 -37 -9 -60 -25 -22 -16 -63 -39 -91 -52 -27 -13 -64 -33 -80 -46 -27
-20 -156 -85 -170 -85 -12 0 -4 28 14 44 10 9 19 27 19 39 0 17 35 105 58 145
1 2 40 5 88 7 47 2 102 7 121 11 21 4 35 2 35 -4 0 -12 -48 -22 -109 -22 -41
0 -52 -5 -96 -45 l-50 -46 60 37 60 37 -60 -56 -60 -57 60 26 c33 14 94 43
136 65 41 21 81 39 87 39 7 0 12 5 12 10 0 6 -7 10 -15 10 -9 0 -12 6 -8 16 4
12 0 14 -22 8 -18 -4 -26 -3 -22 3 10 15 -33 24 -56 12 -26 -14 -139 -17 -144
-3 -2 5 12 16 32 24 24 9 35 20 35 34 0 12 11 39 25 61 13 22 40 70 59 106 19
36 41 71 50 78 15 12 15 11 1 -15 -27 -52 -16 -48 40 13 31 35 71 67 93 76 21
8 44 22 51 31 19 23 -2 20 -33 -5 -15 -12 -30 -19 -33 -15 -4 3 -1 6 5 6 7 0
12 5 12 10 0 17 -27 11 -57 -13 -15 -13 -36 -26 -45 -30 -9 -3 -40 -36 -68
-74 -29 -37 -51 -63 -48 -58 25 58 45 97 72 140 71 110 74 132 4 28 -25 -38
-64 -108 -88 -158 -23 -49 -44 -84 -47 -77 -3 7 0 27 6 44 6 17 11 42 11 54 0
15 6 24 15 24 8 0 15 7 15 16 0 9 25 62 55 117 30 55 54 102 52 103 -2 2 -23
-25 -46 -61 -24 -36 -47 -65 -51 -65 -5 0 -15 -3 -24 -6 -11 -4 -18 4 -24 28
l-9 33 -8 -47 c-9 -57 -20 -62 -29 -12 -7 35 -66 139 -66 115 0 -7 -5 -9 -11
-5 -7 4 -10 1 -7 -7 3 -8 11 -14 19 -14 7 0 19 -11 26 -25 15 -30 17 -90 3
-90 -5 0 -10 6 -10 13 0 7 -9 31 -21 52 l-21 40 7 -35 c3 -19 9 -53 11 -75 l5
-40 -20 47 c-29 67 -36 138 -16 163 14 17 17 18 26 5 7 -11 8 -7 3 14 -5 20
-4 27 4 22 8 -5 10 -1 6 9 -6 14 -8 14 -23 -2 -10 -10 -18 -21 -19 -25 -2 -4
-10 -24 -18 -43 -13 -31 -13 -41 2 -85 18 -56 11 -83 -8 -32 l-12 31 -13 -47
c-7 -26 -12 -58 -13 -70 0 -13 -7 -38 -15 -55 -8 -18 -16 -57 -17 -87 l-3 -55
-16 35 -15 34 -14 -114 c-7 -63 -13 -144 -12 -180 1 -49 -1 -61 -9 -47 -6 10
-11 66 -11 125 0 85 5 127 26 207 15 57 34 107 45 115 10 9 21 31 24 50 29
155 36 188 46 213 6 16 11 38 10 50 0 15 -7 7 -24 -28 -13 -27 -24 -54 -25
-58 0 -4 -13 -36 -29 -70 -56 -121 -69 -153 -96 -242 -15 -49 -31 -92 -36 -95
-7 -5 -32 -72 -77 -205 -9 -27 -20 -52 -25 -53 -4 -2 -4 -8 -1 -13 3 -6 1 -16
-5 -23 -7 -8 -13 -28 -14 -45 -1 -17 -6 -31 -10 -31 -5 0 -5 -10 -1 -22 3 -13
3 -20 -2 -15 -8 7 -13 -5 -60 -143 -14 -41 -28 -77 -31 -80 -8 -6 -3 9 42 155
20 66 88 300 151 520 161 564 162 568 201 693 19 62 34 115 32 117 -2 2 -17
-36 -33 -85 -17 -49 -34 -86 -39 -83 -6 3 -7 1 -3 -6 10 -15 -68 -290 -100
-355 -13 -28 -24 -55 -24 -62 0 -28 -44 -106 -80 -144 -22 -23 -40 -46 -40
-51 0 -5 -11 -11 -25 -15 -21 -5 -24 -11 -19 -28 3 -11 6 -23 6 -26 0 -23 -5
-30 -21 -30 -11 0 -23 -5 -27 -12 -5 -8 -1 -9 12 -4 15 6 16 5 7 -5 -9 -9 -16
-9 -25 -1 -9 7 -19 7 -28 2 -13 -8 -13 -10 1 -10 20 0 49 -31 49 -54 0 -10
-11 -19 -30 -22 -34 -7 -36 -15 -14 -50 16 -24 16 -26 -14 -56 -19 -18 -38
-28 -47 -24 -26 10 -16 -3 15 -19 21 -11 30 -23 30 -39 0 -26 -17 -36 -58 -36
-25 0 -25 -1 -6 -15 18 -14 17 -14 -9 -5 -36 13 -47 13 -47 0 0 -5 6 -10 14
-10 20 0 66 -39 66 -56 0 -15 -31 -31 -87 -44 -25 -6 -33 -4 -36 9 -4 14 -5
14 -6 -1 0 -10 -5 -18 -11 -18 -5 0 -10 -7 -10 -15 0 -13 4 -14 20 -5 25 13
63 4 85 -21 24 -26 14 -42 -36 -57 -41 -13 -45 -12 -61 8 -10 12 -19 34 -19
49 -1 19 -3 21 -6 7 -4 -15 -7 -16 -13 -5 -5 7 -11 11 -13 9 -9 -10 -18 -80
-10 -79 20 3 33 -2 33 -15 0 -9 8 -12 25 -8 28 5 75 -21 75 -43 0 -7 -16 -19
-34 -26 -19 -7 -33 -16 -30 -21 11 -17 -17 -7 -37 13 -16 16 -20 29 -15 57 l6
37 -13 -29 c-14 -32 -47 -44 -47 -18 0 10 -3 13 -8 7 -10 -14 -42 -15 -43 -1
0 6 -4 2 -9 -9 -6 -15 -9 -16 -9 -4 -1 10 -9 15 -23 14 -13 -1 -31 7 -40 17
-9 11 -20 20 -25 20 -19 1 -33 11 -27 19 3 5 -2 6 -10 3 -8 -3 -25 1 -38 10
-25 18 -48 21 -48 7 0 -11 75 -54 125 -72 19 -7 35 -16 35 -20 0 -5 9 -6 19
-4 15 3 18 -1 14 -12 -4 -11 -2 -14 5 -9 7 4 12 2 12 -3 0 -6 7 -11 15 -11 8
0 15 -5 15 -11 0 -5 5 -7 10 -4 6 3 10 1 10 -6 0 -8 4 -8 16 1 12 11 15 11 12
-1 -2 -10 6 -13 27 -12 43 2 71 -5 89 -23 17 -16 23 -49 7 -40 -4 3 -17 -1
-27 -9 -22 -17 -58 -19 -84 -5 -13 7 -21 6 -30 -5 -7 -8 -16 -12 -21 -9 -5 3
-9 1 -9 -4 0 -5 -9 -12 -20 -15 -11 -3 -20 0 -20 6 0 8 -4 7 -9 -2 -5 -7 -14
-10 -20 -7 -6 4 -11 1 -11 -8 0 -8 -5 -18 -10 -21 -7 -4 -9 3 -5 22 l5 28 -14
-30 -14 -30 -4 30 c-4 28 -5 27 -15 -15 l-11 -45 -2 35 c-2 33 -3 33 -10 10
-7 -22 -8 -20 -10 15 l-2 40 -10 -35 c-6 -19 -13 -29 -15 -22 -3 6 -9 10 -14
6 -5 -3 -9 3 -9 13 0 15 -2 16 -10 3 -8 -12 -10 -12 -10 5 0 15 -2 17 -9 6 -7
-11 -10 -9 -15 7 -4 13 -13 19 -22 15 -7 -3 -14 0 -14 7 0 7 -7 10 -15 6 -9
-3 -15 0 -15 9 0 8 -4 15 -9 15 -33 0 -9 117 96 474 19 66 39 129 43 140 5 12
37 109 71 216 68 216 181 546 205 600 36 81 173 250 196 242 5 -1 8 7 8 18 0
11 5 20 10 20 6 0 10 8 10 18 0 15 31 43 46 41 3 0 14 9 24 20 11 13 24 19 34
15 11 -4 16 0 17 12 1 11 2 24 4 29 1 6 3 16 3 23 1 8 9 11 21 7 23 -7 53 4
45 17 -3 5 -13 7 -21 4 -8 -3 -21 1 -29 9 -14 13 -73 21 -114 15 -12 -2 -11 3
4 19 23 25 16 37 -12 22 -15 -8 -23 -7 -31 3 -14 17 -6 24 63 48 55 20 81 41
137 111 30 38 39 57 38 85 l-1 37 -8 -30 c-6 -25 -8 -26 -9 -7 0 13 -5 21 -10
17 -6 -3 -6 6 -1 25 5 17 5 28 1 25 -5 -2 -8 26 -8 63 1 63 -26 176 -44 188
-14 8 -31 -38 -32 -86 -1 -33 6 -56 21 -77 26 -37 26 -31 6 -100 -10 -34 -20
-51 -25 -46 -6 6 -4 21 6 39 21 40 20 45 -20 113 -30 51 -43 63 -91 85 -46 21
-55 29 -48 43 13 30 11 118 -3 115 -9 -1 -13 11 -13 36 0 48 -28 132 -46 139
-8 3 -14 11 -14 19 0 8 -4 14 -10 14 -5 0 -10 6 -10 13 0 6 -11 26 -25 42
l-24 30 18 -50 c29 -76 35 -136 20 -199 -7 -31 -15 -56 -19 -56 -4 0 -13 -20
-19 -44 -6 -25 -15 -48 -21 -51 -5 -3 -10 -11 -10 -16 0 -6 5 -7 11 -3 6 3 4
-8 -5 -24 -9 -17 -20 -34 -26 -37 -6 -4 -19 -23 -30 -43 -11 -20 -27 -47 -36
-59 -15 -21 -14 -24 24 -65 39 -41 42 -42 99 -41 54 2 153 33 153 49 0 8 -84
-6 -90 -16 -3 -4 -24 -10 -47 -14 l-42 -6 -12 42 c-6 24 -15 48 -21 55 -14 18
-1 33 30 33 18 0 31 -7 37 -22 6 -12 17 -24 25 -26 12 -4 13 -2 3 9 -16 16
-17 59 -3 59 6 0 16 11 22 25 6 14 15 25 19 25 14 0 99 -54 99 -63 0 -5 -5 -5
-10 -2 -20 12 -120 13 -120 1 1 -29 46 -57 122 -76 61 -16 92 -1 86 41 -5 32
3 37 22 14 21 -25 3 -80 -36 -114 -32 -29 -40 -31 -108 -31 -40 0 -87 -5 -105
-11 -45 -16 -109 4 -157 47 -34 32 -38 33 -55 18 -9 -8 -20 -26 -23 -40 -4
-13 -13 -24 -20 -24 -17 0 -56 -46 -56 -66 0 -7 18 -39 40 -71 80 -116 74
-299 -12 -399 -36 -41 -40 -27 -8 30 29 51 54 116 45 116 -3 0 -13 -17 -24
-38 -11 -21 -26 -44 -34 -50 -8 -7 -4 9 10 36 13 26 26 72 28 102 l5 55 -16
-42 c-8 -24 -34 -63 -57 -88 -33 -36 -54 -49 -97 -60 -72 -19 -314 -21 -308
-2 10 29 52 38 158 33 93 -5 110 -3 149 16 50 24 80 78 81 141 0 48 28 106 41
86 6 -10 9 -5 9 16 0 38 -43 130 -64 138 -9 4 -16 12 -16 19 0 20 110 126 155
149 53 28 106 69 101 77 -2 4 11 23 30 42 19 19 34 38 34 43 0 5 -18 -9 -39
-31 -22 -23 -54 -48 -71 -57 -33 -17 -120 -36 -120 -26 0 3 25 19 56 35 63 33
82 63 87 133 4 66 -9 130 -45 221 -17 42 -31 78 -32 79 -1 1 -1 -35 -1 -80 0
-94 -20 -143 -79 -194 -61 -54 -135 -75 -273 -77 -68 -1 -123 1 -123 4 0 4 18
15 40 25 45 20 90 55 72 55 -7 0 -12 4 -12 8 0 4 32 6 70 4 85 -5 114 10 131
67 10 34 9 44 -8 73 -22 38 -75 71 -153 95 -30 9 -60 21 -67 27 -7 6 -19 43
-27 81 -13 66 -13 72 5 103 23 40 24 49 4 32 -23 -19 -18 0 20 76 37 74 47
112 14 54 l-20 -35 7 44 c3 24 2 41 -2 38 -5 -3 -8 34 -6 81 3 98 -7 163 -27
170 -12 4 -13 -16 -8 -115 4 -87 2 -139 -9 -189 -8 -38 -14 -80 -14 -93 0 -13
-3 -21 -7 -18 -4 4 -13 -7 -20 -24 -30 -71 -171 -217 -246 -256 -67 -34 -224
-45 -274 -20 -23 12 -33 13 -42 4 -8 -8 -11 -7 -11 6 0 9 -4 17 -10 17 -5 0
-23 13 -39 29 -16 16 -38 35 -48 42 -11 8 -27 30 -37 49 -20 39 -30 158 -17
193 30 76 45 107 54 107 6 0 8 3 4 6 -10 10 46 65 88 86 l40 20 -38 -32 c-105
-89 -163 -304 -104 -390 57 -84 134 -115 292 -115 86 0 94 2 149 35 97 59 138
116 185 255 104 312 -11 577 -288 659 -71 21 -189 20 -271 -3z m474 -321 c35
-66 47 -122 48 -215 1 -142 -42 -232 -147 -310 -22 -16 -42 -32 -45 -35 -15
-15 -170 -30 -170 -16 0 4 -11 6 -25 4 -13 -3 -22 -2 -20 3 3 4 -3 10 -12 13
-10 3 -36 22 -58 41 l-40 36 54 -33 c45 -28 66 -33 128 -36 84 -5 116 5 186
57 47 35 100 110 100 141 0 8 4 18 10 21 5 4 12 50 15 102 5 107 -8 179 -44
246 -24 44 -32 68 -13 41 5 -8 20 -35 33 -60z m-337 44 c-137 -27 -208 -86
-278 -233 -23 -47 -45 -93 -49 -101 -4 -9 -11 -40 -15 -70 -4 -30 -10 -59 -14
-65 -15 -21 -11 -74 7 -123 19 -50 19 -51 1 -41 -10 5 -19 14 -19 19 0 6 -7
10 -15 10 -8 0 -15 5 -15 10 0 6 -5 10 -11 10 -17 0 -38 32 -39 56 0 39 60
256 86 307 30 59 103 140 159 175 70 44 125 61 200 60 l70 0 -68 -14z m319
-139 c11 -41 15 -81 11 -148 -3 -51 -7 -99 -9 -107 -34 -109 -125 -182 -223
-179 -16 0 -48 6 -70 14 l-40 13 45 1 c57 2 138 30 178 61 16 14 43 50 58 80
25 47 29 69 32 157 4 99 3 108 -33 208 -4 11 2 6 14 -12 11 -18 28 -57 37 -88z
m-245 85 c34 -19 20 -25 -59 -26 -90 0 -132 -17 -189 -75 -82 -83 -130 -228
-120 -363 5 -67 4 -69 -8 -36 -36 94 9 306 86 404 27 35 97 82 140 94 46 14
126 14 150 2z m41 -596 c-33 -12 -50 -12 -82 -4 -22 6 -40 12 -40 13 0 2 37 4
83 5 l82 2 -43 -16z m947 -418 c-2 -2 -15 -9 -29 -15 -24 -11 -24 -11 -6 3 16
13 49 24 35 12z m-349 -54 c-49 -34 -98 -83 -114 -116 -18 -37 -22 -126 -6
-126 6 0 10 13 10 29 0 31 18 91 32 106 5 6 8 -11 7 -42 -2 -36 3 -60 17 -80
10 -15 17 -34 16 -42 -2 -7 1 -10 7 -6 6 3 16 -6 22 -22 6 -15 15 -36 20 -45
5 -10 9 -25 9 -33 0 -9 5 -13 11 -9 7 4 9 21 6 40 -8 45 4 43 31 -5 14 -25 22
-56 22 -87 0 -46 -3 -51 -41 -78 -39 -27 -47 -29 -166 -33 -70 -2 -134 -8
-144 -14 -10 -5 -25 -9 -33 -9 -23 0 -20 47 2 59 22 11 134 37 204 46 39 5 49
10 54 30 10 39 -28 109 -80 146 -25 19 -48 43 -52 53 -6 18 -7 18 -19 -5 -7
-13 -16 -40 -20 -59 -8 -36 -22 -60 -35 -60 -5 0 -3 14 3 30 9 24 9 33 -1 39
-14 8 -7 36 15 62 7 9 15 29 17 45 22 168 47 195 191 201 l40 1 -25 -16z
m-3486 -21 c-2 -3 -12 3 -22 13 -16 17 -16 18 5 5 12 -7 20 -15 17 -18z m3834
-241 c-6 -30 -8 -100 -4 -155 5 -87 4 -98 -8 -82 -32 42 -32 226 0 275 22 33
24 25 12 -38z m378 45 c-11 -8 -25 -15 -30 -15 -6 0 -2 7 8 15 11 8 25 15 30
15 6 0 2 -7 -8 -15z m-4139 -27 c-3 -7 -5 -2 -5 12 0 14 2 19 5 13 2 -7 2 -19
0 -25z m3837 -2 c-3 -15 -8 -25 -11 -23 -2 3 -1 17 3 31 3 15 8 25 11 23 2 -3
1 -17 -3 -31z m-11 -108 c2 -26 1 -45 -4 -42 -5 3 -9 29 -8 57 1 59 5 54 12
-15z m139 -70 c-7 -7 -12 -18 -12 -25 0 -8 7 -6 20 7 11 11 26 20 33 20 10 -1
-4 -15 -60 -60 -19 -16 -23 -12 -23 20 0 17 7 33 18 39 24 14 39 14 24 -1z
m-1177 -128 c17 -4 -5 -5 -50 -2 -44 2 -82 6 -84 8 -8 7 104 2 134 -6z m-47
-27 c-21 -2 -57 -2 -80 0 -24 2 -7 4 37 4 44 0 63 -2 43 -4z m-35 -30 c-34 -2
-93 -2 -130 0 -37 2 -9 3 62 3 72 0 102 -1 68 -3z m-193 -35 c0 -4 17 -8 39
-8 21 0 56 -7 76 -16 21 -8 46 -13 56 -11 11 3 20 -3 24 -17 7 -20 7 -25 0
-51 -12 -51 -52 -97 -114 -131 -19 -10 -43 -27 -52 -36 -16 -15 -49 -70 -49
-81 0 -3 19 -12 42 -22 77 -30 124 -75 79 -75 -10 0 -24 -6 -30 -14 -9 -11 -5
-19 21 -40 l33 -26 -50 0 c-27 0 -99 7 -160 15 -165 22 -316 20 -365 -5 -68
-35 -77 -84 -12 -69 79 17 194 18 236 1 56 -22 99 -61 85 -78 -10 -12 -7 -13
133 -40 15 -3 30 -10 33 -15 8 -11 -144 -11 -205 1 -25 4 -46 7 -48 5 -4 -3
218 -74 293 -94 104 -28 208 -50 214 -47 3 2 29 0 56 -5 28 -5 64 -11 80 -13
56 -7 94 -18 106 -32 20 -25 15 -107 -9 -141 -12 -17 -22 -36 -22 -43 0 -7
-14 -29 -30 -50 -17 -21 -36 -49 -43 -62 -24 -46 -152 -233 -164 -241 -7 -4
-13 -13 -13 -19 0 -7 -8 -21 -19 -32 -10 -12 -35 -51 -55 -89 -21 -37 -48 -78
-62 -92 -13 -13 -24 -29 -24 -36 0 -6 -7 -8 -16 -5 -9 4 -13 2 -8 -5 5 -9 -4
-10 -32 -4 -46 8 -40 3 -53 45 l-10 35 2 -35 c2 -28 -2 -35 -18 -38 -11 -2
-43 -20 -72 -39 -29 -20 -65 -36 -84 -37 -30 -1 -36 -8 -70 -69 -33 -63 -78
-125 -51 -71 8 15 8 21 -1 21 -7 1 -27 3 -46 6 l-34 4 -2 64 c-1 35 1 91 5
124 6 62 -8 166 -34 247 -8 27 -18 67 -21 90 -4 24 -11 49 -17 55 -8 9 1 16
36 25 26 7 41 15 34 19 -6 4 -22 3 -36 -2 -14 -5 -26 -8 -27 -7 -1 2 -16 62
-34 133 -18 72 -47 162 -65 200 -18 39 -40 104 -50 145 -9 41 -22 83 -28 94
-8 15 -5 23 18 42 15 13 37 24 50 24 29 0 35 10 39 63 1 23 6 56 10 72 10 36
93 165 111 172 17 6 25 29 30 88 4 40 13 59 50 101 56 66 123 115 194 142 54
21 150 27 150 10z m153 5 c-13 -2 -33 -2 -45 0 -13 2 -3 4 22 4 25 0 35 -2 23
-4z m-2866 -189 c18 -5 21 -10 12 -25 -8 -16 -4 -15 27 6 21 14 39 23 42 21 6
-7 -38 -77 -69 -108 -22 -23 -176 -138 -218 -163 -22 -13 27 52 52 70 17 12
18 15 5 15 -9 0 -23 -6 -30 -13 -19 -19 -113 -57 -140 -57 -20 0 -19 3 12 22
145 90 189 126 215 178 31 62 40 68 92 54z m106 -69 c-3 -9 -8 -14 -10 -11 -3
3 -2 9 2 15 9 16 15 13 8 -4z m32 -44 c-3 -12 -11 -21 -16 -21 -5 0 -9 -6 -9
-13 0 -17 -38 -53 -46 -44 -3 3 4 21 17 39 47 69 69 84 54 39z m4589 -426
c-10 -97 -26 -91 -22 8 2 74 5 85 16 70 9 -12 11 -35 6 -78z m43 13 c-3 -8 -6
-5 -6 6 -1 11 2 17 5 13 3 -3 4 -12 1 -19z m510 -190 c-3 -8 -6 -5 -6 6 -1 11
2 17 5 13 3 -3 4 -12 1 -19z m-17 -53 c0 -8 -4 -15 -10 -15 -5 0 -7 7 -4 15 4
8 8 15 10 15 2 0 4 -7 4 -15z m-28 -87 c-8 -8 -9 -4 -5 13 4 13 8 18 11 10 2
-7 -1 -18 -6 -23z m-18 -63 c-4 -8 -8 -15 -10 -15 -2 0 -4 7 -4 15 0 8 4 15
10 15 5 0 7 -7 4 -15z m-664 -37 c0 -30 -3 -39 -9 -29 -7 11 -13 5 -26 -24
-14 -36 -22 -64 -24 -90 -1 -5 -5 -4 -10 3 -5 9 -14 -8 -27 -52 -11 -40 -21
-60 -26 -52 -7 12 8 62 47 151 9 22 20 42 24 45 4 3 13 24 19 48 7 23 17 42
22 42 6 0 10 -19 10 -42z m435 -107 c-6 -5 -46 -24 -90 -43 -44 -19 -107 -51
-139 -72 -32 -20 -60 -35 -63 -32 -10 10 20 48 60 73 68 43 266 107 232 74z
m-102 -96 c-21 -15 -98 -45 -112 -45 -18 1 45 40 65 40 12 0 26 5 29 10 3 6
14 10 23 10 13 0 12 -3 -5 -15z m-5163 -251 c0 -8 -4 -12 -10 -9 -5 3 -10 10
-10 16 0 5 5 9 10 9 6 0 10 -7 10 -16z m4522 -66 c-8 -8 -9 -4 -5 13 4 13 8
18 11 10 2 -7 -1 -18 -6 -23z m498 -113 c-1 -5 -14 6 -30 25 -17 19 -30 39
-30 45 1 5 14 -6 30 -25 17 -19 30 -39 30 -45z m-2020 33 c59 -14 71 -26 23
-21 l-39 4 -12 -58 c-7 -32 -13 -63 -14 -70 -1 -7 -4 -11 -7 -10 -3 1 -21 -11
-39 -27 -22 -21 -34 -42 -39 -70 -6 -36 -7 -38 -13 -16 -7 30 20 82 66 125 27
25 33 39 37 84 5 58 -6 50 -17 -13 -8 -39 -71 -120 -87 -110 -4 2 -11 -1 -15
-7 -4 -8 -3 -9 4 -5 17 11 15 -9 -3 -24 -10 -9 -15 -9 -15 -1 0 6 -8 3 -18 -6
-10 -10 -17 -24 -14 -30 2 -7 -1 -13 -7 -13 -6 0 -11 9 -11 20 0 12 -13 25
-35 36 -19 9 -32 21 -28 27 3 6 1 7 -5 3 -19 -11 -14 17 11 63 18 35 31 45 72
60 28 9 67 28 87 42 44 30 57 32 118 17z m900 -39 c3 -4 21 -16 41 -27 77 -43
84 -47 89 -53 3 -3 20 -11 38 -18 17 -8 32 -18 32 -23 0 -6 7 -8 15 -4 8 3 15
1 15 -5 0 -6 5 -7 10 -4 6 3 10 -5 10 -19 0 -13 3 -33 6 -43 5 -15 4 -15 -5
-3 -8 12 -11 8 -12 -20 -2 -34 -2 -34 -7 -5 l-4 30 -13 -35 c-9 -24 -14 -29
-15 -15 -1 16 -4 14 -15 -10 -11 -24 -14 -26 -15 -10 -1 18 -2 18 -15 -5 -9
-16 -15 -19 -15 -10 -1 10 -4 9 -10 -5 -8 -18 -9 -18 -10 5 -1 24 -1 24 -15 6
-15 -20 -15 -20 -16 0 0 18 -1 18 -9 -1 -7 -17 -9 -16 -9 10 -1 23 -4 27 -11
15 -8 -12 -10 -10 -11 10 l-1 25 -8 -25 -8 -25 -1 25 c-1 15 -12 32 -29 43
-39 27 -63 82 -63 151 -1 74 24 92 61 45z m446 -4 c24 -24 24 -51 0 -42 -6 3
-25 -1 -41 -9 -26 -12 -27 -13 -5 -8 21 4 22 3 8 -6 -23 -14 -58 7 -58 37 0
22 33 53 58 53 7 0 24 -11 38 -25z m954 -45 l-11 -25 6 25 c2 14 5 34 6 45 2
19 2 19 6 0 2 -12 -1 -32 -7 -45z m-409 40 c28 -15 23 -32 -16 -60 -19 -14
-33 -30 -30 -37 2 -6 -7 -19 -21 -27 -14 -10 -24 -12 -24 -6 0 6 -4 8 -10 5
-6 -4 -5 -11 3 -19 10 -11 19 -7 52 19 36 30 95 56 95 42 0 -3 -24 -21 -54
-41 -85 -56 -153 -147 -158 -211 -2 -23 -7 -27 -25 -23 -12 2 -3 38 18 81 15
27 17 42 10 55 -9 14 -10 15 -11 1 0 -8 -13 -25 -30 -37 -27 -20 -30 -21 -30
-5 0 10 -14 -6 -31 -34 -26 -46 -35 -53 -61 -53 l-30 0 4 68 c3 53 10 76 34
112 68 106 115 151 179 171 32 11 115 10 136 -1z m-598 -91 c37 -20 52 -59 22
-59 -9 0 -18 -7 -21 -15 -12 -30 -84 3 -84 39 0 15 32 46 47 46 8 0 24 -5 36
-11z m-4266 -31 c-3 -7 -5 -2 -5 12 0 14 2 19 5 13 2 -7 2 -19 0 -25z m-87
-78 c-9 -22 -10 -20 -6 15 5 39 5 39 -9 15 l-14 -25 -1 37 c0 39 15 60 23 31
3 -13 5 -11 8 7 1 16 4 10 6 -15 2 -23 -1 -52 -7 -65z m40 60 c0 -22 -4 -40
-10 -40 -11 0 -14 63 -3 73 11 12 13 8 13 -33z m30 18 c0 -13 -5 -30 -10 -38
-7 -11 -10 -5 -10 23 0 20 5 37 10 37 6 0 10 -10 10 -22z m-232 -5 c2 -8 -5
-13 -17 -13 -12 0 -21 -3 -21 -8 0 -4 -16 -12 -36 -18 -34 -11 -35 -11 -32 14
2 18 11 28 28 33 35 10 73 6 78 -8z m2827 -3 c3 -5 -1 -10 -10 -10 -9 0 -13 5
-10 10 3 6 8 10 10 10 2 0 7 -4 10 -10z m-2708 -47 c-3 -10 -5 -4 -5 12 0 17
2 24 5 18 2 -7 2 -21 0 -30z m2560 31 c-3 -3 -12 -4 -19 -1 -8 3 -5 6 6 6 11
1 17 -2 13 -5z m262 -20 c6 4 11 2 11 -5 0 -6 -8 -9 -19 -6 -10 2 -27 0 -37
-6 -18 -10 -18 -9 0 12 13 15 22 18 27 10 4 -6 12 -8 18 -5z m121 -50 c0 -14
-6 -24 -14 -24 -8 0 -16 -6 -19 -12 -2 -8 -8 -9 -13 -4 -5 5 -4 11 4 13 6 3
12 15 12 27 0 13 3 26 6 29 12 11 24 -3 24 -29z m1448 -5 c2 -13 -13 -25 -62
-47 -5 -3 -5 1 -1 8 6 9 4 11 -5 5 -7 -4 -16 -2 -21 6 -13 20 -11 36 7 53 13
13 20 14 47 3 18 -8 33 -20 35 -28z m-4487 -18 c23 -19 23 -20 4 -26 -11 -4
-35 -13 -54 -21 -37 -16 -55 -8 -49 22 3 18 41 44 64 44 7 0 22 -9 35 -19z
m5129 2 c-8 -3 -23 -12 -32 -21 -22 -19 -24 -9 -2 12 8 9 23 16 32 15 14 0 14
-2 2 -6z m-2049 -94 c0 -35 -4 -75 -11 -89 -9 -22 -10 -20 -5 15 2 22 5 64 5
94 0 30 2 52 5 49 3 -3 6 -34 6 -69z m1363 40 c24 -19 38 -48 17 -35 -5 3 -11
0 -14 -8 -3 -8 -18 -13 -39 -12 -27 1 -34 6 -36 26 -3 14 3 29 14 37 23 17 27
17 58 -8z m-4854 -63 c0 -8 3 -23 6 -33 6 -16 4 -15 -16 3 -12 12 -19 27 -16
33 10 16 26 14 26 -3z m400 -10 c0 -8 -7 -17 -16 -20 -23 -9 -24 -8 -24 14 0
13 7 20 20 20 11 0 20 -6 20 -14z m4417 -31 c15 -13 24 -25 18 -26 -5 -1 -29
-2 -52 -4 -36 -2 -43 1 -43 16 0 16 24 38 42 39 4 0 20 -11 35 -25z m890 -17
c-3 -8 -6 -5 -6 6 -1 11 2 17 5 13 3 -3 4 -12 1 -19z m-5897 -39 c0 -16 -63
-89 -77 -89 -15 0 -28 39 -16 50 4 5 24 20 43 33 35 24 50 25 50 6z m200 11
c0 -5 -4 -10 -10 -10 -5 0 -10 5 -10 10 0 6 5 10 10 10 6 0 10 -4 10 -10z
m400 -15 c0 -8 -7 -15 -15 -15 -8 0 -15 7 -15 15 0 8 7 15 15 15 8 0 15 -7 15
-15z m3077 -17 c-3 -8 -6 -5 -6 6 -1 11 2 17 5 13 3 -3 4 -12 1 -19z m-433
-11 c-3 -8 -12 -18 -20 -21 -11 -4 -10 0 3 18 20 26 27 28 17 3z m1721 -7 c17
-19 17 -19 -14 -7 -32 12 -42 27 -18 27 8 0 22 -9 32 -20z m-1266 -60 c0 -19
-11 -73 -24 -120 -18 -60 -23 -72 -19 -40 3 25 12 67 21 94 9 29 13 65 10 89
-4 27 -2 36 4 26 5 -7 9 -30 8 -49z m-3489 36 c0 -3 -4 -8 -10 -11 -5 -3 -10
-1 -10 4 0 6 5 11 10 11 6 0 10 -2 10 -4z m4736 -41 c18 -14 18 -14 -8 -15
-27 0 -43 12 -31 24 9 9 17 8 39 -9z m-18 -87 c21 -21 13 -27 -18 -15 -16 6
-30 15 -30 19 0 12 35 9 48 -4z m-1291 -50 c-3 -8 -6 -5 -6 6 -1 11 2 17 5 13
3 -3 4 -12 1 -19z m1520 -40 c-3 -8 -6 -5 -6 6 -1 11 2 17 5 13 3 -3 4 -12 1
-19z m-1072 -316 c-6 -4 -23 -27 -39 -52 -42 -64 -199 -219 -236 -231 -16 -6
-30 -17 -30 -24 0 -7 -26 -20 -57 -30 -32 -10 -97 -38 -144 -61 -99 -50 -209
-71 -209 -40 0 9 4 16 9 16 6 0 40 27 78 59 37 33 70 58 74 55 4 -2 9 2 12 10
3 7 21 16 40 20 19 4 38 13 41 21 3 8 14 15 24 15 11 0 25 6 31 14 11 13 85
33 104 28 5 -2 6 2 3 7 -3 5 0 14 8 20 11 9 13 4 10 -30 -1 -23 -9 -46 -16
-50 -7 -5 -8 -9 -2 -9 18 0 57 48 49 61 -5 7 -4 10 2 6 10 -6 79 52 202 171
24 23 47 40 50 37 3 -4 1 -9 -4 -13z m-141 -94 c-60 -67 -62 -69 -69 -58 -3 5
-1 10 5 10 7 0 9 7 6 15 -3 10 1 18 12 22 9 4 28 17 42 30 42 39 45 26 4 -19z
m-2559 -15 c13 -16 24 -37 24 -48 0 -20 0 -20 -14 -1 -8 11 -15 16 -15 12 0
-5 -9 3 -20 17 -39 49 -16 66 25 20z m398 3 c21 -16 21 -22 1 -30 -9 -3 -12
-2 -9 5 4 6 -1 17 -11 24 -11 8 -14 14 -9 14 6 0 18 -6 28 -13z m2070 -56 c-3
-12 -8 -19 -11 -16 -5 6 5 36 12 36 2 0 2 -9 -1 -20z m150 -33 c-3 -13 -16
-37 -29 -52 -13 -15 -24 -31 -24 -34 0 -13 -85 -101 -98 -101 -6 0 -12 -5 -12
-11 0 -5 -5 -7 -12 -3 -6 4 -18 -2 -26 -12 -13 -18 -14 -18 -7 6 17 58 72 128
153 194 51 42 61 44 55 13z m-2543 -18 c0 -19 -1 -19 -16 -5 -8 9 -12 20 -9
26 9 15 25 2 25 -21z m1948 -129 c-10 -6 -25 -7 -40 -1 -20 9 -18 10 17 10 31
0 36 -2 23 -9z m-38 -20 c0 -5 -6 -10 -14 -10 -7 0 -19 -7 -26 -15 -7 -8 -19
-15 -26 -15 -20 0 -17 27 4 39 22 13 62 14 62 1z m-1390 -350 c0 -5 -6 -10
-14 -10 -8 0 -18 5 -21 10 -3 6 3 10 14 10 12 0 21 -4 21 -10z m-449 -77 c-12
-20 -14 -14 -5 12 4 9 9 14 11 11 3 -2 0 -13 -6 -23z m713 -66 c-3 -9 -11 -17
-16 -17 -6 0 -7 7 -4 16 3 9 6 21 6 27 0 8 3 8 10 1 6 -6 8 -18 4 -27z m574
-429 c-3 -7 -12 -14 -22 -14 -15 -2 -15 -2 0 3 14 4 14 7 3 14 -11 7 -10 9 4
9 11 0 17 -6 15 -12z m-48 -2 c0 -2 -9 -6 -20 -9 -11 -3 -18 -1 -14 4 5 9 34
13 34 5z m391 -433 c-31 -6 -54 -29 -45 -45 5 -7 9 -35 9 -62 1 -28 6 -51 13
-54 17 -5 26 -67 12 -91 -6 -12 -15 -19 -20 -16 -13 8 0 -28 13 -36 6 -4 5
-20 -2 -42 -11 -31 -16 -35 -53 -39 -41 -4 -44 -2 -120 75 -43 44 -78 83 -78
88 0 5 22 9 50 9 54 0 90 26 90 64 0 11 21 51 46 88 41 61 48 68 77 67 26 -1
28 -3 8 -6z m-211 -23 c0 -5 -4 -10 -10 -10 -5 0 -10 5 -10 10 0 6 5 10 10 10
6 0 10 -4 10 -10z m40 -40 c0 -5 -2 -10 -4 -10 -3 0 -8 5 -11 10 -3 6 -1 10 4
10 6 0 11 -4 11 -10z m20 -339 c0 -5 -7 -14 -15 -21 -16 -14 -18 -10 -9 14 6
17 24 22 24 7z m70 -11 c0 -5 -7 -10 -15 -10 -24 0 -50 -37 -56 -83 l-6 -42
-1 45 c-2 46 21 96 39 85 5 -4 9 -1 9 4 0 6 7 11 15 11 8 0 15 -4 15 -10z"/>
<path d="M5368 6843 c7 -3 16 -2 19 1 4 3 -2 6 -13 5 -11 0 -14 -3 -6 -6z"/>
<path d="M5340 6819 c0 -5 5 -7 10 -4 6 3 10 8 10 11 0 2 -4 4 -10 4 -5 0 -10
-5 -10 -11z"/>
<path d="M5311 6754 c0 -11 3 -14 6 -6 3 7 2 16 -1 19 -3 4 -6 -2 -5 -13z"/>
<path d="M5311 6704 c0 -11 3 -14 6 -6 3 7 2 16 -1 19 -3 4 -6 -2 -5 -13z"/>
<path d="M4228 4903 c6 -2 18 -2 25 0 6 3 1 5 -13 5 -14 0 -19 -2 -12 -5z"/>
<path d="M4520 4615 c0 -5 5 -17 10 -25 5 -8 10 -10 10 -5 0 6 -5 17 -10 25
-5 8 -10 11 -10 5z"/>
<path d="M6357 4259 c-4 -16 -3 -18 9 -8 7 6 11 15 8 20 -8 13 -11 11 -17 -12z"/>
<path d="M6320 4236 c0 -2 7 -7 16 -10 8 -3 12 -2 9 4 -6 10 -25 14 -25 6z"/>
<path d="M4412 4220 c0 -14 2 -19 5 -12 2 6 2 18 0 25 -3 6 -5 1 -5 -13z"/>
<path d="M3892 1609 c4 -9 -2 -20 -13 -27 -10 -6 -23 -22 -30 -34 -12 -23 -12
-23 10 -4 18 16 21 17 21 3 0 -8 -6 -17 -12 -20 -7 -3 -4 -5 8 -4 16 1 20 6
16 21 -3 10 -1 17 4 14 12 -8 12 48 0 59 -5 4 -7 1 -4 -8z"/>
<path d="M3812 1454 c-7 -8 -8 -14 -3 -14 10 0 25 19 20 25 -2 1 -10 -3 -17
-11z"/>
<path d="M3315 8225 c29 -24 55 -37 55 -28 0 12 -14 28 -25 30 -5 1 -19 4 -30
8 l-20 7 20 -17z"/>
<path d="M5578 8176 c-10 -28 -14 -59 -11 -89 5 -46 23 -67 23 -27 0 22 16 27
23 8 2 -7 3 20 2 60 -2 90 -15 107 -37 48z"/>
<path d="M3384 8189 c-8 -14 8 -30 22 -21 9 5 8 10 -2 19 -9 9 -15 10 -20 2z"/>
<path d="M3410 8156 c0 -2 8 -10 18 -17 15 -13 16 -12 3 4 -13 16 -21 21 -21
13z"/>
<path d="M5644 8107 c4 -54 -5 -142 -19 -188 -5 -14 -1 -19 13 -19 17 0 19 9
21 108 1 60 -3 118 -9 132 -9 21 -10 15 -6 -33z"/>
<path d="M2353 8123 c-24 -8 -43 -19 -43 -23 0 -9 73 20 87 33 8 9 6 8 -44
-10z"/>
<path d="M1180 8109 c0 -39 23 -186 32 -203 15 -28 27 -7 32 53 3 43 -1 63
-21 100 -29 55 -43 71 -43 50z"/>
<path d="M5251 8115 c1 -19 18 -51 18 -35 0 8 -4 22 -9 30 -5 8 -9 11 -9 5z"/>
<path d="M2363 8089 c-44 -22 -114 -93 -139 -141 -23 -44 -29 -120 -12 -152
14 -27 14 -26 26 49 15 95 35 136 26 54 -8 -71 17 -161 53 -195 14 -13 29 -21
34 -18 5 3 19 -2 31 -10 13 -9 43 -16 71 -16 42 0 53 5 78 31 16 18 29 42 29
57 0 41 11 18 20 -40 l8 -53 1 46 c1 30 -7 61 -22 92 -13 25 -20 44 -14 40 14
-9 -9 29 -34 56 l-23 24 22 -5 c31 -8 27 -1 -8 17 -16 8 -47 15 -69 15 -55 0
-73 -27 -61 -90 5 -25 9 -48 10 -52 0 -4 7 -5 15 -2 9 4 15 0 15 -8 0 -21 54
-78 73 -78 9 0 19 -4 22 -10 4 -6 -5 -10 -20 -10 -65 0 -172 90 -161 135 3 13
1 34 -4 47 -9 20 -10 19 -5 -10 3 -20 1 -31 -5 -27 -14 8 -12 82 3 124 7 19
28 47 48 63 78 63 228 40 386 -58 116 -72 165 -137 174 -233 4 -36 10 -79 13
-96 4 -16 -12 7 -34 53 -30 58 -48 82 -61 82 -17 0 -17 -2 -3 -36 18 -42 13
-64 -15 -64 -31 0 -33 -14 -15 -101 21 -104 14 -159 -29 -246 -43 -83 -112
-156 -172 -179 -73 -27 -234 -2 -357 56 -54 25 -187 160 -218 220 -17 34 -50
61 -50 41 0 -4 -18 -16 -40 -27 -22 -10 -40 -23 -40 -27 0 -5 -4 -5 -10 -2 -5
3 -12 -6 -16 -20 -3 -14 -11 -25 -16 -25 -6 0 -8 7 -4 15 3 8 1 15 -4 15 -6 0
-10 -4 -10 -8 0 -5 -9 -19 -20 -32 -15 -17 -26 -21 -47 -16 -18 4 -23 3 -14
-2 9 -7 10 -12 2 -16 -6 -4 -11 -5 -11 -1 0 3 -9 1 -20 -5 -25 -13 -26 -31 -2
-24 9 2 7 -1 -5 -7 -40 -21 -21 -73 40 -107 27 -14 59 -17 192 -17 159 0 160
0 204 -28 l43 -29 24 23 c18 17 27 20 35 12 6 -6 17 -9 23 -7 7 3 24 -7 39
-22 22 -22 32 -25 61 -20 18 4 46 2 61 -4 22 -9 45 -4 132 25 57 20 138 52
180 71 41 18 82 34 90 34 20 0 116 100 144 150 22 38 26 41 56 35 27 -5 42 0
78 26 43 31 56 49 36 49 -6 0 -12 -4 -15 -8 -4 -7 -75 -8 -113 -1 -7 1 -21 12
-30 23 -18 21 -18 21 5 2 12 -11 22 -14 22 -8 0 6 -4 14 -10 17 -26 16 -3 23
74 22 76 -2 87 0 110 22 14 13 28 36 31 51 7 32 29 54 65 65 14 4 42 19 63 32
22 14 45 22 52 20 9 -4 12 6 11 33 0 21 -3 34 -6 29 -4 -5 -18 9 -33 31 -14
22 -21 40 -16 40 5 0 4 6 -3 14 -7 8 -15 13 -18 11 -3 -2 -11 3 -18 11 -11 12
-10 14 4 14 13 0 14 3 4 15 -7 8 -19 15 -27 15 -8 0 -12 4 -9 9 6 10 -58 71
-74 71 -6 0 -8 5 -5 10 5 9 -8 14 -19 8 -2 -2 -12 4 -22 12 -24 20 -61 37 -96
44 -22 5 -26 3 -22 -9 4 -8 10 -15 15 -15 5 0 9 -4 9 -10 0 -16 -14 -12 -39
11 -12 11 -36 22 -54 23 -47 4 -49 5 -43 15 4 5 -3 7 -13 4 -17 -4 -12 -10 27
-37 26 -17 58 -41 72 -53 100 -85 135 -113 142 -113 4 0 8 -5 8 -11 0 -5 -10
-3 -22 5 -12 9 -30 16 -39 16 -20 0 -52 16 -96 48 -17 12 -34 22 -38 22 -4 0
-19 8 -33 18 -54 37 -105 66 -99 55 4 -6 -10 -3 -30 8 -64 32 -126 59 -130 56
-2 -2 19 -18 47 -36 48 -31 78 -61 49 -48 -150 63 -183 76 -186 74 -1 -2 29
-18 67 -37 106 -49 79 -46 -41 5 -90 38 -114 45 -174 45 -51 0 -81 -6 -112
-21z m49 -271 c-7 -7 -12 -8 -12 -2 0 14 12 26 19 19 2 -3 -1 -11 -7 -17z
m642 -139 c55 -106 109 -119 121 -30 7 51 18 64 29 35 17 -44 -3 -114 -33
-114 -6 0 -11 -4 -11 -10 0 -19 -30 -10 -60 17 -25 22 -100 158 -100 181 0 14
23 -19 54 -79z m-713 24 c13 -16 12 -17 -3 -4 -10 7 -18 15 -18 17 0 8 8 3 21
-13z"/>
<path d="M1135 8010 c-5 -68 -4 -95 5 -103 10 -9 11 -7 6 9 -4 14 -1 28 8 37
8 8 12 17 9 20 -3 3 -7 31 -9 63 -1 31 -5 58 -7 61 -3 2 -8 -37 -12 -87z"/>
<path d="M2275 8080 c-3 -6 1 -7 9 -4 18 7 21 14 7 14 -6 0 -13 -4 -16 -10z"/>
<path d="M1058 7991 c6 -98 -10 -150 -61 -198 -57 -55 -93 -67 -178 -61 l-70
5 21 -22 c19 -20 19 -23 5 -29 -9 -3 -21 -3 -27 0 -18 11 -77 -7 -100 -31 -13
-14 -29 -25 -37 -25 -18 0 -9 -33 36 -134 45 -99 50 -106 59 -72 9 38 22 32
26 -11 3 -37 4 -37 17 20 8 32 19 56 24 54 21 -7 48 -113 50 -197 3 -123 -15
-189 -66 -244 -53 -58 -60 -66 -73 -96 -31 -66 -74 -189 -75 -211 -4 -211 -6
-377 -2 -351 2 17 8 32 14 32 5 0 9 7 9 16 0 8 4 13 8 10 5 -3 8 8 7 24 -1 22
3 30 15 30 9 0 20 13 25 33 7 22 16 32 30 32 17 0 21 -8 25 -60 l5 -60 13 80
c20 119 61 287 77 311 14 21 81 58 128 69 37 10 61 -40 59 -123 -3 -104 66
-228 131 -235 19 -2 21 2 18 33 -4 46 -34 103 -68 130 -26 20 -28 28 -29 93
-1 87 -10 125 -36 153 -25 27 -12 37 45 32 35 -2 42 1 46 17 5 28 62 114 102
154 19 19 26 31 17 28 -15 -5 -16 -4 -5 13 6 11 18 18 24 15 13 -5 16 4 32 95
5 30 13 64 17 74 5 13 4 17 -3 13 -6 -4 -13 0 -16 7 -4 10 0 13 15 11 16 -3
19 0 15 15 -3 13 0 20 9 20 15 0 54 35 54 48 0 5 -9 19 -20 32 -24 28 -75 39
-118 26 -26 -7 -34 -17 -42 -48 -16 -56 -30 -47 -31 20 0 31 -2 53 -4 47 -23
-77 -29 -95 -32 -95 -2 0 -17 12 -34 28 -17 15 -47 36 -67 47 -21 11 -47 30
-60 43 -12 12 -33 22 -46 22 -13 0 -26 7 -30 15 -3 8 -12 15 -21 15 -8 0 -15
6 -15 14 0 10 17 17 56 22 33 4 58 12 61 20 3 8 11 14 19 14 16 0 19 -26 4
-35 -5 -3 -10 -19 -10 -36 0 -26 2 -28 19 -17 73 45 104 276 52 392 l-17 40 4
-73z m-83 -583 c28 -24 49 -86 38 -114 -5 -14 -3 -16 18 -10 73 23 73 23 65
-23 -5 -33 -3 -41 9 -41 20 0 19 -26 -1 -34 -9 -3 -14 -12 -11 -19 3 -8 1 -20
-4 -28 -8 -12 -10 -12 -18 0 -10 15 -26 -3 -16 -18 3 -6 -4 -15 -16 -21 -15
-9 -19 -18 -15 -35 3 -13 1 -27 -4 -30 -6 -4 -7 -12 -3 -18 5 -9 3 -9 -8 -1
-18 15 -89 10 -99 -6 -13 -22 -30 0 -30 38 0 21 6 62 14 92 8 30 20 102 26
160 16 146 14 143 55 108z m185 -829 c0 -6 -4 -7 -10 -4 -5 3 -10 11 -10 16 0
6 5 7 10 4 6 -3 10 -11 10 -16z"/>
<path d="M1270 8044 c0 -8 5 -12 10 -9 6 4 8 11 5 16 -9 14 -15 11 -15 -7z"/>
<path d="M2225 8033 c-14 -15 -25 -31 -25 -35 0 -4 14 6 30 24 17 17 30 33 30
34 0 10 -11 2 -35 -23z"/>
<path d="M6486 8038 c-9 -34 -7 -48 5 -48 5 0 8 4 5 9 -4 5 -2 21 4 35 5 14 6
26 1 26 -5 0 -11 -10 -15 -22z"/>
<path d="M1013 8000 c-24 -90 -94 -160 -160 -160 -23 0 -32 -4 -27 -11 11 -19
120 -6 145 17 39 35 60 91 57 147 l-3 52 -12 -45z"/>
<path d="M1297 7988 c-4 -12 -4 -24 -1 -27 8 -9 39 15 42 33 5 26 -35 20 -41
-6z"/>
<path d="M6603 7975 c2 -40 7 -43 32 -15 21 23 13 50 -15 50 -17 0 -20 -6 -17
-35z"/>
<path d="M6087 7972 c-16 -17 -15 -20 8 -42 31 -29 39 -22 31 25 -8 40 -16 43
-39 17z"/>
<path d="M6783 7910 c-6 -14 -17 -40 -23 -57 -38 -102 -195 -157 -317 -112
-19 7 -23 4 -29 -24 -3 -18 -13 -39 -20 -47 -8 -8 -24 -27 -35 -42 -12 -16
-30 -28 -43 -28 -22 0 -22 2 -13 48 6 27 7 57 2 68 -7 17 -8 16 -17 -8 -5 -16
-13 -28 -16 -28 -4 0 -8 -24 -10 -53 -4 -69 -18 -81 -31 -26 -6 24 -23 69 -38
99 -15 30 -35 87 -44 125 -16 66 -17 67 -18 28 -1 -23 4 -54 10 -70 24 -61 65
-251 74 -348 8 -75 16 -95 53 -114 21 -11 27 -9 62 23 21 19 49 40 62 46 12 7
33 22 45 33 27 24 29 21 38 -83 8 -96 42 -378 55 -450 5 -30 19 -136 31 -235
12 -99 25 -186 29 -193 10 -20 2 82 -25 283 -39 293 -38 278 -15 293 25 15 25
27 -1 63 -26 37 -18 66 23 74 18 4 32 15 35 26 6 22 14 24 30 8 8 -8 18 -6 36
6 15 9 31 14 37 10 8 -5 11 14 10 66 -2 72 4 117 30 227 6 29 10 55 8 56 -1 2
-29 0 -60 -3 -64 -8 -74 0 -27 20 105 43 158 164 131 299 -8 43 -9 44 -19 20z"/>
<path d="M5523 7874 c-17 -7 -35 -19 -38 -25 -6 -8 -10 -7 -16 2 -11 18 -23 4
-12 -15 7 -12 17 -9 63 20 56 35 58 42 3 18z"/>
<path d="M1157 7863 c-3 -10 -8 -36 -12 -58 -6 -36 -43 -122 -80 -185 -8 -13
-12 -26 -10 -28 21 -21 92 120 105 208 10 69 8 104 -3 63z"/>
<path d="M6420 7856 c0 -8 16 -28 37 -43 30 -23 46 -28 92 -27 59 1 115 23
125 49 9 25 7 30 -6 17 -17 -17 -128 -15 -171 3 -46 19 -77 19 -77 1z"/>
<path d="M1251 7824 c0 -11 3 -14 6 -6 3 7 2 16 -1 19 -3 4 -6 -2 -5 -13z"/>
<path d="M5694 7771 c-17 -13 -19 -22 -12 -35 6 -11 6 -22 -2 -31 -6 -8 -9
-18 -6 -24 8 -12 -30 -25 -46 -15 -7 4 -10 4 -7 1 3 -4 26 -17 50 -30 24 -13
72 -40 107 -60 34 -20 62 -32 62 -26 0 5 -7 12 -15 15 -8 4 -13 10 -10 14 3 4
-2 10 -10 14 -10 4 -15 20 -15 50 0 25 -5 68 -11 96 -10 45 -13 50 -37 50 -15
-1 -37 -9 -48 -19z"/>
<path d="M5461 7731 c-11 -7 -10 -11 7 -20 16 -9 21 -7 25 9 5 21 -8 26 -32
11z"/>
<path d="M2781 7516 c-8 -14 -18 -23 -24 -19 -6 4 -7 -8 -4 -33 4 -24 3 -31
-2 -19 -7 16 -11 11 -28 -33 -11 -30 -23 -53 -26 -52 -4 0 -20 -11 -35 -25
-15 -14 -35 -28 -45 -31 -9 -3 -14 -10 -11 -16 4 -6 1 -9 -7 -6 -8 3 -19 -2
-25 -10 -30 -41 -215 -54 -283 -19 -52 26 -50 12 3 -22 26 -16 82 -39 125 -50
66 -18 87 -20 126 -11 67 15 137 53 173 95 67 76 107 195 85 253 l-9 23 -13
-25z"/>
<path d="M5365 7500 c-3 -5 13 -23 35 -40 31 -24 53 -33 90 -35 27 -2 51 -1
54 3 4 8 -13 26 -29 31 -5 2 -20 7 -33 12 -13 5 -29 9 -37 9 -8 0 -16 4 -19 9
-8 12 -55 20 -61 11z"/>
<path d="M2691 7483 c0 -13 -8 -23 -16 -23 -8 0 -15 -4 -15 -10 0 -5 -6 -9
-12 -7 -7 1 -12 -4 -10 -10 1 -7 -1 -12 -5 -11 -11 4 -54 -28 -48 -34 3 -3 -1
-8 -10 -12 -9 -3 -13 -2 -10 4 3 5 -7 3 -22 -4 -45 -23 -109 -38 -185 -45 -19
-2 -6 -21 15 -22 12 0 31 -4 42 -9 13 -5 1 -7 -35 -4 l-55 4 45 -16 c83 -28
193 -1 263 64 39 37 69 98 64 130 -3 23 -4 23 -6 5z m-264 -159 c-3 -3 -12 -4
-19 -1 -8 3 -5 6 6 6 11 1 17 -2 13 -5z"/>
<path d="M2584 7466 c5 -14 2 -17 -9 -12 -9 3 -44 -5 -78 -18 -34 -13 -75 -27
-90 -30 -17 -4 -25 -11 -21 -18 10 -16 124 -4 169 20 45 23 82 59 71 69 -4 4
-11 1 -17 -7 -8 -13 -10 -13 -20 0 -9 12 -10 12 -5 -4z"/>
<path d="M1800 7360 c-8 -5 -10 -10 -5 -10 6 0 17 5 25 10 8 5 11 10 5 10 -5
0 -17 -5 -25 -10z"/>
<path d="M6050 7311 c0 -11 53 -51 68 -51 9 0 25 41 18 47 -9 9 -86 13 -86 4z"/>
<path d="M1451 7274 c0 -11 3 -14 6 -6 3 7 2 16 -1 19 -3 4 -6 -2 -5 -13z"/>
<path d="M2388 7243 c7 -3 16 -2 19 1 4 3 -2 6 -13 5 -11 0 -14 -3 -6 -6z"/>
<path d="M5630 7200 c0 -19 -6 -45 -13 -57 -22 -39 -84 -76 -147 -86 -19 -3
-16 -5 10 -6 56 -2 112 19 147 54 36 36 39 54 18 100 l-13 30 -2 -35z"/>
<path d="M1355 7190 c-3 -5 -3 -19 0 -32 7 -30 14 -160 7 -154 -6 6 -59 -20
-67 -34 -12 -20 64 -11 82 10 9 11 36 22 59 26 47 7 49 20 9 66 -11 13 -27 38
-34 56 -10 25 -16 30 -23 20 -6 -8 -7 0 -3 22 l6 35 -16 -25 c-16 -24 -16 -24
-12 -2 5 23 2 28 -8 12z"/>
<path d="M6100 7167 c0 -13 19 -43 44 -69 37 -40 46 -45 56 -33 7 8 19 15 26
15 17 0 17 5 2 33 -13 25 -47 57 -60 57 -14 0 -22 2 -45 11 -20 7 -23 5 -23
-14z"/>
<path d="M2025 7123 c-11 -3 -25 -10 -32 -15 -11 -9 -138 -3 -188 8 -18 4 -18
4 -3 -6 10 -6 79 -14 154 -17 110 -5 138 -4 144 8 15 24 -22 35 -75 22z"/>
<path d="M2115 7090 c-3 -6 1 -7 9 -4 18 7 21 14 7 14 -6 0 -13 -4 -16 -10z"/>
<path d="M4160 6783 c0 -6 -16 -31 -35 -57 -32 -41 -40 -46 -76 -46 -43 0 -79
-14 -79 -31 0 -6 7 -3 16 5 10 10 33 16 65 16 48 0 49 1 85 55 21 30 34 58 31
62 -4 3 -7 2 -7 -4z"/>
<path d="M3943 6611 c-15 -13 -46 -20 -107 -24 -47 -3 -94 -11 -104 -17 -16
-11 -16 -11 1 -6 9 3 48 8 85 11 111 10 131 15 142 35 13 24 11 24 -17 1z"/>
<path d="M1997 6583 c-4 -3 -7 -22 -7 -41 0 -28 -8 -43 -36 -69 -20 -18 -42
-33 -48 -33 -25 -1 32 -24 89 -36 78 -17 85 -17 85 2 0 10 -6 13 -17 10 -27
-8 -49 39 -52 109 -3 64 -4 69 -14 58z"/>
<path d="M3633 6475 c-3 -9 -3 -18 -1 -21 3 -3 8 4 11 16 6 23 -1 27 -10 5z"/>
<path d="M4563 6443 c9 -2 23 -2 30 0 6 3 -1 5 -18 5 -16 0 -22 -2 -12 -5z"/>
<path d="M4658 6443 c12 -2 32 -2 45 0 12 2 2 4 -23 4 -25 0 -35 -2 -22 -4z"/>
<path d="M3617 6426 c-4 -10 -7 -25 -6 -34 0 -11 4 -9 10 7 5 13 8 29 6 35 -2
5 -6 2 -10 -8z"/>
<path d="M4518 6433 c7 -3 16 -2 19 1 4 3 -2 6 -13 5 -11 0 -14 -3 -6 -6z"/>
<path d="M4598 6423 c6 -2 18 -2 25 0 6 3 1 5 -13 5 -14 0 -19 -2 -12 -5z"/>
<path d="M4695 6419 c87 -13 88 -15 3 -23 -42 -4 -90 -13 -105 -21 -37 -19
-14 -19 54 1 30 9 78 14 109 12 33 -2 53 1 51 7 -6 17 -69 34 -122 33 l-50 0
60 -9z"/>
<path d="M6751 6420 c-1 -18 47 -120 48 -104 1 6 -10 36 -23 65 -14 30 -25 47
-25 39z"/>
<path d="M4558 6403 c12 -2 30 -2 40 0 9 3 -1 5 -23 4 -22 0 -30 -2 -17 -4z"/>
<path d="M4193 6388 c-13 -22 -13 -42 0 -29 10 10 19 41 12 41 -2 0 -7 -6 -12
-12z"/>
<path d="M4308 6374 c-27 -13 -48 -27 -48 -29 0 -3 23 6 50 20 28 14 50 28 50
30 0 7 1 7 -52 -21z"/>
<path d="M4465 6390 c-14 -7 -8 -8 20 -3 22 3 42 7 44 9 9 8 -45 2 -64 -6z"/>
<path d="M4350 6370 c-19 -11 -30 -19 -25 -19 6 0 26 8 45 19 19 11 31 19 25
19 -5 0 -26 -8 -45 -19z"/>
<path d="M3300 6371 c0 -6 17 -11 40 -11 41 0 90 -17 90 -32 0 -4 6 -8 13 -8
19 1 -42 50 -62 50 -10 0 -33 3 -50 6 -20 4 -31 3 -31 -5z"/>
<path d="M6588 6345 c-15 -22 -30 -53 -33 -70 -6 -28 -5 -29 9 -11 8 10 17 24
19 30 3 8 8 8 16 0 9 -8 9 -18 1 -39 -16 -43 -5 -40 15 5 14 32 16 48 9 82
l-10 43 -26 -40z"/>
<path d="M3607 6346 c-6 -14 -18 -17 -67 -15 -33 1 -65 -2 -70 -7 -5 -5 19 -9
61 -8 70 1 95 11 87 35 -3 9 -6 8 -11 -5z"/>
<path d="M6262 6340 c0 -14 2 -19 5 -12 2 6 2 18 0 25 -3 6 -5 1 -5 -13z"/>
<path d="M600 6309 c0 -5 5 -7 10 -4 6 3 10 8 10 11 0 2 -4 4 -10 4 -5 0 -10
-5 -10 -11z"/>
<path d="M2744 6306 l28 -13 -47 -6 c-27 -4 -55 -13 -63 -20 -8 -6 -45 -15
-81 -19 -39 -4 -14 -5 59 -2 69 2 132 4 140 4 8 0 23 0 33 -1 9 0 15 -4 12
-10 -4 -5 1 -9 9 -9 24 0 71 -52 85 -95 17 -52 29 -65 49 -58 14 4 14 3 3 -5
-8 -6 -11 -17 -7 -27 3 -10 2 -23 -3 -29 -4 -6 -11 -28 -15 -48 -6 -30 -11
-38 -29 -38 -17 0 -19 -2 -8 -9 11 -7 9 -10 -10 -13 -13 -2 14 -4 61 -5 62 0
97 -6 130 -21 33 -16 46 -18 52 -9 5 8 8 6 8 -5 0 -10 -4 -18 -10 -18 -5 0
-10 -12 -10 -27 0 -25 1 -26 16 -11 9 9 24 40 35 69 l18 54 -5 -45 -4 -45 14
35 c7 20 10 42 5 51 -4 8 -3 22 2 30 5 7 9 28 9 45 0 21 10 40 30 60 23 23 30
38 30 72 0 23 -5 42 -11 42 -6 0 -8 9 -4 20 5 15 3 18 -8 14 -9 -3 -17 3 -21
18 -3 13 -15 34 -26 48 -20 24 -21 25 -35 6 -8 -11 -15 -14 -15 -8 0 7 -4 12
-10 12 -5 0 -6 -8 -3 -17 6 -15 4 -16 -8 -6 -17 14 -265 45 -329 41 -25 -1
-56 1 -70 5 -21 6 -20 4 4 -7z m466 -80 c0 -12 -5 -7 -19 24 -11 24 -11 24 3
6 9 -11 16 -24 16 -30z"/>
<path d="M2518 6293 c7 -3 16 -2 19 1 4 3 -2 6 -13 5 -11 0 -14 -3 -6 -6z"/>
<path d="M597 6283 c-5 -8 9 -53 16 -53 2 0 2 14 -1 30 -4 31 -8 36 -15 23z"/>
<path d="M7091 6264 c0 -11 3 -14 6 -6 3 7 2 16 -1 19 -3 4 -6 -2 -5 -13z"/>
<path d="M6820 6264 c0 -7 7 -27 15 -45 8 -19 14 -29 15 -23 0 7 -7 27 -15 45
-8 19 -14 29 -15 23z"/>
<path d="M6871 6254 c0 -11 3 -14 6 -6 3 7 2 16 -1 19 -3 4 -6 -2 -5 -13z"/>
<path d="M7101 6224 c0 -11 3 -14 6 -6 3 7 2 16 -1 19 -3 4 -6 -2 -5 -13z"/>
<path d="M2558 6213 c7 -3 16 -2 19 1 4 3 -2 6 -13 5 -11 0 -14 -3 -6 -6z"/>
<path d="M7041 6204 c0 -11 3 -14 6 -6 3 7 2 16 -1 19 -3 4 -6 -2 -5 -13z"/>
<path d="M6774 6175 c4 -22 8 -55 10 -74 2 -18 10 -38 16 -45 10 -8 11 0 5 38
-4 33 -3 46 4 41 14 -8 14 25 1 45 -5 8 -10 11 -10 5 0 -5 -8 -1 -16 10 -15
19 -16 18 -10 -20z"/>
<path d="M6720 6195 c0 -2 9 -19 20 -37 l21 -33 -7 30 c-4 17 -9 33 -11 38 -5
8 -23 10 -23 2z"/>
<path d="M6880 6145 c0 -32 2 -56 5 -53 8 8 9 98 1 105 -3 4 -6 -20 -6 -52z"/>
<path d="M7032 6160 c0 -14 2 -19 5 -12 2 6 2 18 0 25 -3 6 -5 1 -5 -13z"/>
<path d="M7167 6046 c5 -103 10 -126 32 -165 17 -31 27 -41 29 -29 2 9 -3 27
-10 40 -7 13 -13 46 -14 73 -3 61 -17 141 -32 175 -8 19 -9 -4 -5 -94z"/>
<path d="M3662 6105 c0 -16 2 -22 5 -12 2 9 2 23 0 30 -3 6 -5 -1 -5 -18z"/>
<path d="M7021 6114 c0 -11 3 -14 6 -6 3 7 2 16 -1 19 -3 4 -6 -2 -5 -13z"/>
<path d="M6482 6100 c-6 -11 -12 -27 -12 -36 0 -10 -6 -14 -14 -11 -11 5 -13
-1 -9 -26 6 -41 -28 -90 -48 -69 -29 28 -25 9 4 -20 l32 -33 13 23 c7 13 18
51 23 85 6 34 15 67 21 74 5 7 8 17 6 23 -2 6 -9 1 -16 -10z"/>
<path d="M3248 6048 c-10 -12 -18 -27 -18 -33 1 -12 40 33 40 46 0 13 -3 11
-22 -13z"/>
<path d="M6717 6040 c3 -19 11 -47 18 -62 15 -32 15 -32 -19 -17 -16 8 -28 25
-34 48 l-10 36 1 -35 c0 -29 8 -40 43 -67 42 -31 42 -31 46 -8 3 12 -8 49 -23
81 -24 51 -27 54 -22 24z"/>
<path d="M3683 5975 c0 -22 2 -30 4 -17 2 12 2 30 0 40 -3 9 -5 -1 -4 -23z"/>
<path d="M6396 5978 c3 -4 9 -8 15 -8 5 0 9 4 9 8 0 5 -7 9 -15 9 -8 0 -12 -4
-9 -9z"/>
<path d="M7103 5966 c4 -10 7 -43 8 -74 0 -49 2 -53 10 -32 12 29 3 106 -13
116 -8 5 -9 1 -5 -10z"/>
<path d="M3225 5950 c-3 -5 -1 -10 4 -10 6 0 11 5 11 10 0 6 -2 10 -4 10 -3 0
-8 -4 -11 -10z"/>
<path d="M6993 5945 c-3 -9 -3 -18 -1 -21 3 -3 8 4 11 16 6 23 -1 27 -10 5z"/>
<path d="M6611 5934 c0 -11 3 -14 6 -6 3 7 2 16 -1 19 -3 4 -6 -2 -5 -13z"/>
<path d="M6846 5906 c-4 -24 -13 -52 -21 -62 -13 -17 -14 -15 -16 31 l-1 50
-9 -50 c-4 -27 -10 -68 -13 -90 l-6 -40 22 36 c13 20 33 51 45 70 23 34 30 83
14 93 -5 3 -12 -14 -15 -38z"/>
<path d="M6682 5894 c12 -21 26 -33 34 -30 10 4 14 -4 15 -27 l1 -32 11 33 c8
27 7 36 -6 50 -13 12 -17 13 -17 3 0 -8 -9 -2 -21 13 -30 38 -42 32 -17 -10z"/>
<path d="M6600 5886 c0 -14 -4 -26 -10 -26 -5 0 -10 -4 -10 -8 0 -4 9 -8 20
-8 15 0 20 7 20 28 0 15 -4 30 -10 33 -6 4 -10 -5 -10 -19z"/>
<path d="M792 5880 c0 -14 2 -19 5 -12 2 6 2 18 0 25 -3 6 -5 1 -5 -13z"/>
<path d="M6410 5865 c-7 -8 -20 -15 -28 -15 -12 0 -13 -3 -4 -12 7 -7 12 -23
12 -37 0 -34 15 -16 29 33 12 45 10 53 -9 31z"/>
<path d="M6677 5854 c-3 -3 1 -17 9 -32 8 -15 14 -33 14 -40 0 -7 7 -15 15
-18 8 -4 15 -16 16 -28 0 -11 3 -15 6 -8 3 7 -2 28 -11 46 -9 19 -16 38 -16
43 -1 13 -26 43 -33 37z"/>
<path d="M802 5830 c0 -14 2 -19 5 -12 2 6 2 18 0 25 -3 6 -5 1 -5 -13z"/>
<path d="M6645 5840 c3 -5 8 -10 11 -10 2 0 4 5 4 10 0 6 -5 10 -11 10 -5 0
-7 -4 -4 -10z"/>
<path d="M2530 5829 c0 -6 -9 -9 -20 -6 -11 3 -20 1 -20 -4 0 -5 -15 -15 -32
-23 -24 -11 -28 -15 -13 -15 27 -1 105 35 105 49 0 5 -4 10 -10 10 -5 0 -10
-5 -10 -11z"/>
<path d="M6666 5807 c3 -10 9 -15 12 -12 3 3 0 11 -7 18 -10 9 -11 8 -5 -6z"/>
<path d="M7026 5790 c-32 -21 -76 -68 -76 -82 0 -8 19 6 108 79 33 28 10 30
-32 3z"/>
<path d="M1357 5779 c-4 -16 -3 -18 9 -8 7 6 11 15 8 20 -8 13 -11 11 -17 -12z"/>
<path d="M1381 5766 c-7 -9 -8 -17 -2 -20 5 -3 12 0 14 6 4 9 6 8 6 -2 1 -13
2 -13 11 0 8 13 10 12 10 -2 0 -10 5 -18 10 -18 13 0 13 6 0 31 -13 22 -33 25
-49 5z"/>
<path d="M2390 5770 c0 -5 4 -10 9 -10 6 0 13 5 16 10 3 6 -1 10 -9 10 -9 0
-16 -4 -16 -10z"/>
<path d="M6377 5763 c-4 -3 -7 -11 -7 -17 0 -6 5 -5 12 2 6 6 9 14 7 17 -3 3
-9 2 -12 -2z"/>
<path d="M6680 5732 c1 -4 7 -18 15 -32 l14 -25 1 26 c0 15 -7 29 -15 33 -8 3
-15 2 -15 -2z"/>
<path d="M7011 5693 c-48 -59 -37 -75 14 -20 49 53 52 57 31 57 -8 0 -28 -17
-45 -37z"/>
<path d="M2730 5690 c-74 -16 -162 -35 -195 -44 -33 -8 -80 -16 -105 -16 l-45
-1 41 -13 c23 -7 68 -11 103 -9 34 2 76 0 94 -6 18 -6 66 -13 107 -17 41 -3
78 -8 82 -11 4 -2 16 2 27 8 14 10 27 10 52 1 l34 -11 -34 5 c-28 5 -33 4 -28
-10 5 -12 0 -16 -18 -16 -13 0 -26 -3 -28 -8 -3 -4 -31 -8 -63 -10 -115 -6
-67 -14 62 -10 124 3 134 5 174 32 23 15 44 25 47 23 7 -8 -62 -57 -80 -57 -9
0 -18 -4 -22 -9 -3 -5 -31 -15 -63 -21 -82 -16 -108 -29 -47 -23 86 8 155 22
190 39 42 20 96 79 89 97 -3 9 7 17 28 23 50 15 50 47 -1 73 -61 31 -224 27
-401 -9z"/>
<path d="M1414 5565 c-12 -8 -24 -11 -28 -8 -3 3 -6 -5 -6 -18 0 -19 -2 -21
-10 -9 -5 8 -10 13 -11 10 0 -3 -2 -14 -4 -25 -4 -19 1 -20 80 -20 47 0 85 3
85 8 0 4 -5 7 -11 7 -5 0 -7 5 -4 11 9 13 -33 59 -55 59 -8 0 -25 -7 -36 -15z"/>
<path d="M544 5546 c-10 -8 -16 -17 -13 -20 3 -3 14 1 25 8 10 8 16 17 13 20
-3 3 -14 -1 -25 -8z"/>
<path d="M7034 5531 c-56 -41 -114 -98 -114 -112 0 -16 -53 -99 -63 -99 -4 0
6 21 23 46 18 25 30 48 27 51 -8 8 -124 -119 -135 -148 -6 -15 68 -10 101 6
29 14 140 121 194 188 17 20 19 27 8 27 -8 0 -18 -6 -22 -14 -11 -19 -126
-141 -143 -151 -15 -9 -15 -10 46 85 38 60 94 123 94 107 0 -4 11 0 25 9 14 9
22 20 19 25 -8 14 -18 11 -60 -20z"/>
<path d="M1332 5515 c0 -16 2 -22 5 -12 2 9 2 23 0 30 -3 6 -5 -1 -5 -18z"/>
<path d="M761 5464 c0 -11 3 -14 6 -6 3 7 2 16 -1 19 -3 4 -6 -2 -5 -13z"/>
<path d="M1073 5425 c-6 -11 -26 -25 -45 -31 -32 -12 -31 -12 17 -7 60 7 61 7
48 35 -9 21 -10 22 -20 3z"/>
<path d="M1465 5338 c-12 -10 -25 -14 -29 -11 -3 3 -6 1 -6 -5 0 -6 -9 -14
-20 -17 -29 -9 -71 -54 -64 -68 3 -7 -1 -4 -9 6 -13 16 -15 16 -21 1 -8 -22
-8 -26 4 -19 6 3 10 1 10 -5 0 -6 5 -8 10 -5 6 4 32 8 58 10 77 7 171 21 177
27 9 9 -6 58 -16 52 -5 -3 -9 4 -9 16 0 12 -4 18 -10 15 -5 -3 -10 1 -10 9 0
20 -37 16 -65 -6z"/>
<path d="M1093 5301 c-13 -20 -8 -31 14 -31 7 0 13 11 13 25 0 30 -11 32 -27
6z"/>
<path d="M773 5235 c0 -44 2 -61 4 -37 2 23 2 59 0 80 -2 20 -4 1 -4 -43z"/>
<path d="M811 5206 c-1 -53 -4 -104 -7 -114 -4 -12 0 -11 15 6 18 21 20 32 14
105 -8 115 -20 117 -22 3z"/>
<path d="M7221 5208 c-82 -268 -149 -512 -225 -813 -45 -175 -60 -245 -53
-245 5 0 54 101 62 129 5 16 4 21 -4 17 -6 -4 -11 -4 -11 -1 0 31 122 463 127
449 2 -6 -8 -55 -22 -109 -14 -55 -25 -106 -24 -115 2 -54 129 441 154 601 9
57 18 116 22 132 11 52 -4 26 -26 -45z m-27 -203 c-9 -48 -43 -154 -43 -136
-1 19 40 171 46 171 2 0 1 -16 -3 -35z m-57 -197 c-3 -8 -6 -5 -6 6 -1 11 2
17 5 13 3 -3 4 -12 1 -19z"/>
<path d="M1286 5225 c-3 -8 -1 -15 4 -15 6 0 10 7 10 15 0 8 -2 15 -4 15 -2 0
-6 -7 -10 -15z"/>
<path d="M492 5209 c28 -16 118 -24 118 -10 0 12 -2 13 -80 17 -40 2 -50 0
-38 -7z"/>
<path d="M1125 5198 c-6 -13 -18 -22 -28 -22 -9 1 -17 -3 -17 -8 0 -5 -10 -6
-22 -2 -13 3 -19 3 -15 -2 5 -5 33 -9 62 -10 50 0 54 1 50 20 -2 12 -4 27 -4
34 -1 19 -15 14 -26 -10z"/>
<path d="M122 5110 c0 -14 2 -19 5 -12 2 6 2 18 0 25 -3 6 -5 1 -5 -13z"/>
<path d="M1535 5090 c-3 -11 -11 -20 -16 -20 -6 0 -7 -4 -4 -10 3 -5 4 -10 0
-10 -3 0 -10 10 -15 23 -7 19 -9 16 -10 -18 -2 -35 -3 -37 -10 -15 -7 22 -8
20 -10 -15 -1 -32 -3 -36 -10 -20 -7 15 -9 10 -9 -22 -1 -41 12 -57 22 -30 4
10 6 10 6 0 1 -7 7 -13 15 -13 8 0 17 6 19 13 4 9 6 9 6 -1 1 -7 5 -10 11 -7
5 3 28 8 50 10 53 6 71 24 61 61 -5 16 -13 28 -19 27 -6 -1 -8 7 -4 20 3 12 1
19 -3 15 -4 -4 -19 2 -33 12 -31 25 -39 25 -47 0z"/>
<path d="M1152 5075 c-9 -20 -19 -25 -47 -25 -19 0 -35 -5 -35 -10 0 -6 15 -8
40 -4 48 8 70 -7 70 -45 0 -37 -17 -51 -62 -51 -30 0 -36 -3 -31 -16 4 -11 12
-13 27 -8 11 4 38 7 59 8 37 0 37 0 31 36 -4 19 -11 43 -15 52 -5 9 -9 30 -9
47 0 39 -14 47 -28 16z"/>
<path d="M256 5025 c4 -8 10 -15 15 -15 4 0 6 7 3 15 -4 8 -10 15 -15 15 -4 0
-6 -7 -3 -15z"/>
<path d="M142 5000 c0 -14 2 -19 5 -12 2 6 2 18 0 25 -3 6 -5 1 -5 -13z"/>
<path d="M1427 4977 c-3 -8 -1 -20 4 -28 6 -10 9 -7 9 14 0 29 -5 35 -13 14z"/>
<path d="M151 4954 c0 -11 3 -14 6 -6 3 7 2 16 -1 19 -3 4 -6 -2 -5 -13z"/>
<path d="M270 4943 c0 -21 1 -21 30 -7 17 9 30 19 30 22 0 4 -13 7 -30 7 -24
0 -30 -4 -30 -22z"/>
<path d="M161 4920 c-2 -20 61 -311 67 -306 4 5 -29 174 -52 266 -8 30 -14 48
-15 40z"/>
<path d="M357 4900 c-16 -19 -16 -20 3 -20 13 0 20 7 20 20 0 11 -1 20 -3 20
-1 0 -10 -9 -20 -20z"/>
<path d="M428 4913 c7 -3 16 -2 19 1 4 3 -2 6 -13 5 -11 0 -14 -3 -6 -6z"/>
<path d="M405 4887 c-18 -14 -18 -15 4 -46 22 -31 23 -33 5 -46 -11 -7 -19
-19 -19 -26 0 -12 -4 -15 -58 -40 -19 -9 -24 -16 -17 -23 15 -15 83 -7 93 10
12 22 36 17 30 -5 -8 -31 -41 -54 -78 -55 -26 -1 -35 -5 -35 -19 0 -15 8 -17
52 -13 43 3 53 8 61 27 9 23 10 23 19 -9 7 -28 6 -36 -9 -48 -25 -18 -63 -22
-95 -9 -14 5 -18 2 -18 -14 0 -19 5 -21 60 -20 33 1 57 5 55 9 -5 8 23 36 29
29 2 -2 7 -14 10 -26 5 -17 1 -26 -19 -39 -27 -18 -32 -43 -12 -62 6 -7 13
-17 13 -22 1 -6 2 -13 3 -16 2 -9 31 17 31 27 0 5 -7 9 -16 9 -12 0 -15 6 -10
23 3 12 6 25 6 30 0 4 5 7 10 7 6 0 10 -13 10 -29 0 -16 5 -31 10 -33 6 -2 13
-23 15 -47 6 -63 20 -70 33 -19 6 24 36 80 66 125 37 54 55 92 55 110 -2 57
-21 122 -41 140 -20 18 -21 17 -15 -2 17 -55 27 -117 21 -127 -5 -7 -2 -8 5
-4 9 6 11 -2 5 -31 -8 -45 -27 -72 -39 -52 -5 7 -4 10 3 5 17 -10 25 13 11 30
-7 9 -13 24 -14 34 -1 10 -14 37 -28 59 -15 22 -27 45 -27 49 0 16 -49 62 -62
60 -7 -2 -12 2 -11 9 2 6 -6 14 -16 18 -12 3 -23 20 -28 42 -10 42 -21 49 -48
30z"/>
<path d="M285 4869 c-12 -19 3 -22 27 -5 l22 16 -21 0 c-12 0 -25 -5 -28 -11z"/>
<path d="M350 4844 c-19 -10 -21 -14 -7 -14 9 0 17 -4 17 -10 0 -5 -13 -10
-30 -10 -24 0 -30 -4 -30 -21 0 -16 4 -19 18 -14 9 4 28 10 42 13 42 8 70 42
35 42 -9 0 -12 6 -9 15 7 18 -2 18 -36 -1z"/>
<path d="M916 4775 c-4 -26 -10 -54 -14 -63 -3 -10 -1 -13 6 -8 7 4 12 3 12
-3 0 -5 -4 -12 -9 -15 -5 -3 -18 -26 -29 -50 -15 -32 -19 -52 -13 -73 14 -52
5 -63 -52 -64 l-52 0 60 -23 c118 -46 171 -74 214 -117 43 -44 43 -44 26 -11
-16 33 -69 214 -106 366 -27 108 -35 120 -43 61z"/>
<path d="M5872 4770 c0 -14 2 -19 5 -12 2 6 2 18 0 25 -3 6 -5 1 -5 -13z"/>
<path d="M1461 4564 c0 -11 3 -14 6 -6 3 7 2 16 -1 19 -3 4 -6 -2 -5 -13z"/>
<path d="M274 4563 c-8 -3 -9 -14 -4 -36 5 -18 16 -68 25 -112 21 -99 67 -265
103 -367 24 -71 30 -79 61 -89 19 -7 49 -27 67 -45 23 -25 40 -34 63 -34 27 0
30 3 23 18 -5 9 -12 47 -16 83 -3 36 -20 108 -37 160 l-30 94 20 17 c17 13 19
21 12 40 -9 22 -10 22 -10 2 -1 -12 -8 -24 -16 -28 -15 -5 -21 24 -17 77 1 9
-3 17 -8 17 -6 0 -10 -7 -10 -15 0 -9 -7 -18 -17 -22 -14 -5 -13 -8 6 -15 19
-7 21 -13 17 -49 -6 -50 -8 -53 -32 -34 -16 13 -16 14 -1 9 11 -4 17 -1 17 10
0 9 -5 16 -11 16 -5 0 -7 5 -4 10 4 6 3 10 -2 9 -4 -1 -16 1 -25 4 -10 4 -25
9 -33 12 -31 9 -15 27 18 20 l32 -7 -23 24 c-18 18 -24 20 -31 9 -7 -11 -11
-10 -20 7 -12 22 -15 52 -5 52 3 0 12 -7 20 -15 15 -14 54 -21 54 -9 0 3 -15
10 -32 17 l-33 11 30 7 c23 5 25 7 8 8 -13 0 -23 6 -23 11 0 6 -4 10 -10 10
-5 0 -7 -7 -4 -15 4 -9 0 -15 -10 -15 -9 0 -17 6 -18 13 0 6 -2 17 -2 22 -1 6
-7 20 -14 32 -7 12 -12 29 -12 38 0 8 -8 19 -17 22 -10 4 -22 12 -28 19 -5 6
-15 10 -21 7z m166 -314 c0 -11 -4 -17 -10 -14 -5 3 -10 13 -10 21 0 8 5 14
10 14 6 0 10 -9 10 -21z m10 -60 c0 -6 -4 -7 -10 -4 -5 3 -10 11 -10 16 0 6 5
7 10 4 6 -3 10 -11 10 -16z"/>
<path d="M383 4513 c-19 -7 -15 -31 6 -43 29 -15 51 -13 44 5 -3 9 -8 13 -11
10 -3 -3 -11 3 -16 13 -6 11 -17 17 -23 15z"/>
<path d="M7061 4484 c0 -11 3 -14 6 -6 3 7 2 16 -1 19 -3 4 -6 -2 -5 -13z"/>
<path d="M480 4396 c0 -8 5 -18 10 -21 6 -3 10 3 10 14 0 12 -4 21 -10 21 -5
0 -10 -6 -10 -14z"/>
<path d="M3872 3878 c5 -15 28 -23 28 -10 0 5 -7 13 -16 16 -10 4 -14 1 -12
-6z"/>
<path d="M2708 3463 c6 -2 18 -2 25 0 6 3 1 5 -13 5 -14 0 -19 -2 -12 -5z"/>
<path d="M5311 3293 c-7 -8 -11 -16 -8 -19 2 -2 10 2 17 11 17 20 9 27 -9 8z"/>
<path d="M5224 3226 c-24 -11 -49 -45 -39 -54 3 -3 20 8 37 26 35 34 35 44 2
28z"/>
<path d="M999 2928 c-5 -16 -3 -61 3 -64 4 -3 8 11 8 30 0 20 -2 36 -5 36 -3
0 -5 -1 -6 -2z"/>
<path d="M995 2841 c-3 -5 -1 -12 5 -16 5 -3 10 1 10 9 0 18 -6 21 -15 7z"/>
<path d="M996 2801 c-4 -5 -2 -12 3 -15 5 -4 12 -2 15 3 4 5 2 12 -3 15 -5 4
-12 2 -15 -3z"/>
<path d="M996 2761 c-4 -5 -2 -12 3 -15 5 -4 12 -2 15 3 4 5 2 12 -3 15 -5 4
-12 2 -15 -3z"/>
<path d="M990 2710 c0 -5 7 -10 15 -10 8 0 15 5 15 10 0 6 -7 10 -15 10 -8 0
-15 -4 -15 -10z"/>
<path d="M990 2670 c0 -5 7 -10 15 -10 8 0 15 5 15 10 0 6 -7 10 -15 10 -8 0
-15 -4 -15 -10z"/>
<path d="M990 2630 c0 -5 7 -10 15 -10 8 0 15 5 15 10 0 6 -7 10 -15 10 -8 0
-15 -4 -15 -10z"/>
<path d="M995 2590 c-3 -5 1 -10 10 -10 9 0 13 5 10 10 -3 6 -8 10 -10 10 -2
0 -7 -4 -10 -10z"/>
<path d="M996 2552 c-3 -6 -1 -14 5 -17 15 -10 25 3 12 16 -7 7 -13 7 -17 1z"/>
<path d="M995 2511 c-6 -11 9 -23 19 -14 9 9 7 23 -3 23 -6 0 -12 -4 -16 -9z"/>
<path d="M996 2471 c-4 -5 -2 -12 3 -15 5 -4 12 -2 15 3 4 5 2 12 -3 15 -5 4
-12 2 -15 -3z"/>
<path d="M995 2430 c-3 -5 1 -10 10 -10 9 0 13 5 10 10 -3 6 -8 10 -10 10 -2
0 -7 -4 -10 -10z"/>
<path d="M1000 2379 c0 -5 5 -7 10 -4 6 3 10 8 10 11 0 2 -4 4 -10 4 -5 0 -10
-5 -10 -11z"/>
<path d="M3039 2332 c-29 -32 -67 -98 -50 -88 6 4 18 22 27 39 9 18 26 40 37
49 12 9 19 19 16 22 -3 3 -16 -7 -30 -22z"/>
<path d="M1000 2340 c0 -5 5 -10 10 -10 6 0 10 5 10 10 0 6 -4 10 -10 10 -5 0
-10 -4 -10 -10z"/>
<path d="M1000 2300 c0 -5 5 -10 10 -10 6 0 10 5 10 10 0 6 -4 10 -10 10 -5 0
-10 -4 -10 -10z"/>
<path d="M1000 2260 c0 -5 5 -10 10 -10 6 0 10 5 10 10 0 6 -4 10 -10 10 -5 0
-10 -4 -10 -10z"/>
<path d="M1000 2220 c0 -5 5 -10 10 -10 6 0 10 5 10 10 0 6 -4 10 -10 10 -5 0
-10 -4 -10 -10z"/>
<path d="M1000 2180 c0 -5 5 -10 10 -10 6 0 10 5 10 10 0 6 -4 10 -10 10 -5 0
-10 -4 -10 -10z"/>
<path d="M1000 2140 c0 -5 5 -10 11 -10 5 0 7 5 4 10 -3 6 -8 10 -11 10 -2 0
-4 -4 -4 -10z"/>
<path d="M1000 2100 c0 -5 5 -10 11 -10 5 0 7 5 4 10 -3 6 -8 10 -11 10 -2 0
-4 -4 -4 -10z"/>
<path d="M6496 2041 c-14 -5 -16 -10 -7 -15 15 -9 41 -1 41 14 0 11 -7 12 -34
1z"/>
<path d="M3441 2018 c0 -15 -5 -30 -11 -33 -5 -3 -10 -11 -10 -18 0 -6 7 -1
16 11 8 12 13 32 11 45 -4 19 -4 18 -6 -5z"/>
<path d="M6496 2001 c-18 -7 -18 -8 -3 -14 21 -8 22 -27 2 -27 -25 0 -17 -15
9 -16 21 -2 24 2 23 32 -1 36 -2 37 -31 25z"/>
<path d="M6500 1917 c-25 -10 -25 -10 -2 -14 24 -5 31 -23 8 -23 -8 0 -17 -4
-20 -8 -2 -4 7 -8 22 -7 24 0 27 3 24 30 -2 17 -5 31 -5 31 -1 1 -13 -3 -27
-9z"/>
<path d="M995 1890 c3 -5 8 -10 11 -10 2 0 4 5 4 10 0 6 -5 10 -11 10 -5 0 -7
-4 -4 -10z"/>
<path d="M995 1850 c3 -5 8 -10 11 -10 2 0 4 5 4 10 0 6 -5 10 -11 10 -5 0 -7
-4 -4 -10z"/>
<path d="M6520 1842 c0 -6 -8 -9 -17 -6 -16 5 -16 4 1 -10 17 -14 14 -42 -4
-31 -5 3 -11 1 -15 -5 -3 -5 3 -10 14 -10 13 0 21 -7 21 -16 0 -10 -6 -14 -15
-11 -8 4 -17 2 -20 -3 -4 -6 3 -10 14 -10 25 0 28 -27 4 -33 -16 -4 -16 -5 1
-6 13 -1 17 -6 13 -21 -3 -11 -1 -22 4 -25 4 -3 6 -12 2 -20 -3 -8 -1 -15 4
-15 10 0 9 217 -1 227 -3 3 -6 1 -6 -5z"/>
<path d="M990 1770 c0 -5 5 -10 10 -10 6 0 10 5 10 10 0 6 -4 10 -10 10 -5 0
-10 -4 -10 -10z"/>
<path d="M3540 1595 c0 -7 13 -24 29 -37 15 -13 36 -36 46 -51 23 -36 40 -35
18 1 -23 37 -93 103 -93 87z"/>
<path d="M6520 1590 c0 -5 5 -10 10 -10 6 0 10 5 10 10 0 6 -4 10 -10 10 -5 0
-10 -4 -10 -10z"/>
<path d="M6525 1539 c5 -14 2 -25 -6 -30 -14 -9 -13 -9 19 -9 4 0 7 14 7 30 0
18 -5 30 -13 30 -9 0 -11 -7 -7 -21z"/>
<path d="M6525 1471 c-6 -11 9 -23 19 -14 9 9 7 23 -3 23 -6 0 -12 -4 -16 -9z"/>
<path d="M6525 1431 c-6 -11 9 -23 19 -14 9 9 7 23 -3 23 -6 0 -12 -4 -16 -9z"/>
<path d="M6525 1390 c-3 -5 1 -10 9 -10 9 0 16 5 16 10 0 6 -4 10 -9 10 -6 0
-13 -4 -16 -10z"/>
<path d="M6535 1349 c-11 -17 1 -21 15 -4 8 9 8 15 2 15 -6 0 -14 -5 -17 -11z"/>
<path d="M6531 1311 c-8 -5 -9 -11 -3 -15 5 -3 15 1 22 9 14 16 3 20 -19 6z"/>
<path d="M6525 1270 c-3 -5 3 -10 14 -10 12 0 21 5 21 10 0 6 -6 10 -14 10 -8
0 -18 -4 -21 -10z"/>
<path d="M975 1250 c-3 -5 -1 -10 4 -10 6 0 11 5 11 10 0 6 -2 10 -4 10 -3 0
-8 -4 -11 -10z"/>
<path d="M6535 1230 c-3 -5 1 -10 9 -10 9 0 16 5 16 10 0 6 -4 10 -9 10 -6 0
-13 -4 -16 -10z"/>
<path d="M6535 1190 c-3 -5 1 -10 9 -10 9 0 16 5 16 10 0 6 -4 10 -9 10 -6 0
-13 -4 -16 -10z"/>
<path d="M6535 1150 c-3 -5 1 -10 9 -10 9 0 16 5 16 10 0 6 -4 10 -9 10 -6 0
-13 -4 -16 -10z"/>
<path d="M975 1130 c3 -5 8 -10 11 -10 2 0 4 5 4 10 0 6 -5 10 -11 10 -5 0 -7
-4 -4 -10z"/>
<path d="M6542 1111 c-11 -7 -11 -9 2 -14 10 -4 16 -1 16 8 0 17 -1 17 -18 6z"/>
<path d="M6532 1071 c-11 -6 -9 -9 7 -14 12 -3 22 1 25 9 6 16 -12 18 -32 5z"/>
<path d="M6545 1031 c-3 -5 -1 -12 4 -15 5 -3 11 1 15 9 6 16 -9 21 -19 6z"/>
<path d="M6545 991 c-6 -11 9 -23 19 -14 9 9 7 23 -3 23 -6 0 -12 -4 -16 -9z"/>
<path d="M6549 956 c-5 -27 -1 -56 7 -56 11 0 13 49 2 56 -4 3 -8 3 -9 0z"/>
<path d="M6550 864 c0 -8 5 -12 10 -9 6 3 10 10 10 16 0 5 -4 9 -10 9 -5 0
-10 -7 -10 -16z"/>
<path d="M6550 825 c0 -8 5 -15 10 -15 6 0 10 7 10 15 0 8 -4 15 -10 15 -5 0
-10 -7 -10 -15z"/>
<path d="M6551 791 c-10 -6 -10 -10 -1 -16 13 -8 24 -1 19 14 -3 6 -10 7 -18
2z"/>
<path d="M6551 751 c-10 -6 -10 -10 -1 -16 13 -8 24 -1 19 14 -3 6 -10 7 -18
2z"/>
<path d="M6550 700 c0 -5 5 -10 10 -10 6 0 10 5 10 10 0 6 -4 10 -10 10 -5 0
-10 -4 -10 -10z"/>
<path d="M6556 671 c-4 -7 -5 -15 -2 -18 9 -9 19 4 14 18 -4 11 -6 11 -12 0z"/>
<path d="M6561 624 c0 -11 3 -14 6 -6 3 7 2 16 -1 19 -3 4 -6 -2 -5 -13z"/>
<path d="M6555 581 c-3 -5 -1 -12 5 -16 5 -3 10 1 10 9 0 18 -6 21 -15 7z"/>
<path d="M6552 541 c4 -13 18 -16 19 -4 0 4 -5 9 -11 12 -7 2 -11 -2 -8 -8z"/>
<path d="M6555 501 c-3 -5 -1 -12 5 -16 5 -3 10 1 10 9 0 18 -6 21 -15 7z"/>
<path d="M6555 460 c-3 -5 1 -10 9 -10 9 0 16 5 16 10 0 6 -4 10 -9 10 -6 0
-13 -4 -16 -10z"/>
<path d="M6556 421 c-4 -5 -2 -12 3 -15 5 -4 12 -2 15 3 4 5 2 12 -3 15 -5 4
-12 2 -15 -3z"/>
<path d="M6560 380 c0 -5 5 -10 11 -10 5 0 7 5 4 10 -3 6 -8 10 -11 10 -2 0
-4 -4 -4 -10z"/>
<path d="M6555 341 c-6 -11 9 -23 19 -14 9 9 7 23 -3 23 -6 0 -12 -4 -16 -9z"/>
<path d="M6560 300 c0 -5 5 -10 10 -10 6 0 10 5 10 10 0 6 -4 10 -10 10 -5 0
-10 -4 -10 -10z"/>
<path d="M6555 260 c-3 -5 1 -10 9 -10 9 0 16 5 16 10 0 6 -4 10 -9 10 -6 0
-13 -4 -16 -10z"/>
<path d="M6556 221 c-4 -5 -2 -12 3 -15 5 -4 12 -2 15 3 4 5 2 12 -3 15 -5 4
-12 2 -15 -3z"/>
<path d="M6556 181 c-4 -5 -2 -12 3 -15 5 -4 12 -2 15 3 4 5 2 12 -3 15 -5 4
-12 2 -15 -3z"/>
<path d="M6560 134 c0 -8 5 -12 10 -9 6 4 8 11 5 16 -9 14 -15 11 -15 -7z"/>
<path d="M6556 101 c-4 -5 -2 -12 3 -15 5 -4 12 -2 15 3 4 5 2 12 -3 15 -5 4
-12 2 -15 -3z"/>
<path d="M6556 61 c-4 -5 -2 -12 3 -15 5 -4 12 -2 15 3 4 5 2 12 -3 15 -5 4
-12 2 -15 -3z"/>
<path d="M6555 21 c-3 -5 -1 -12 5 -16 5 -3 10 1 10 9 0 18 -6 21 -15 7z"/>
</g>
</svg>
